{"glyphs":{"0":{"ha":799,"x_min":61,"x_max":736,"o":"m 369 908 l 453 907 q 660 788 594 886 q 728 581 715 704 q 735 467 733 535 q 690 160 736 260 q 686 150 689 154 q 633 72 663 101 q 447 -12 568 3 q 358 -14 413 -18 q 350 -12 353 -12 q 144 94 211 4 q 88 214 107 144 q 63 467 61 303 q 69 581 64 535 q 157 813 85 726 q 351 907 222 893 q 369 908 358 908 m 419 822 q 304 781 349 835 q 289 757 296 769 q 279 704 283 744 q 276 269 269 578 q 279 203 278 224 q 288 149 281 167 q 369 74 310 89 q 428 74 399 65 q 510 149 488 89 q 518 203 517 167 q 521 640 528 340 q 518 704 519 685 q 508 757 514 744 q 419 822 481 814 z "},"1":{"ha":799,"x_min":111,"x_max":686,"o":"m 443 908 q 467 910 444 910 q 506 894 499 910 q 508 494 508 889 l 508 100 l 597 100 l 686 100 l 686 50 l 686 0 l 668 0 l 529 3 q 289 3 408 4 q 151 0 150 0 l 133 0 l 133 50 l 133 100 l 221 100 l 308 100 l 308 421 l 308 742 l 293 739 q 135 721 221 721 l 111 721 l 111 771 l 111 821 l 135 821 q 392 875 290 821 q 443 908 425 890 z "},"2":{"ha":799,"x_min":79,"x_max":718,"o":"m 343 908 l 436 907 q 628 826 554 890 q 718 629 718 750 q 635 458 718 538 q 521 372 607 432 q 381 268 463 333 l 307 210 l 375 208 q 583 215 565 208 q 607 269 594 219 l 618 342 q 668 343 618 343 l 718 343 l 718 338 q 696 172 717 335 q 675 6 678 13 l 675 0 l 376 0 l 79 0 l 79 42 q 81 89 79 85 q 215 226 83 94 q 410 433 385 400 q 419 446 414 438 q 474 539 458 494 q 490 629 490 583 q 481 696 490 663 q 333 808 443 794 q 315 810 324 810 q 274 806 278 810 l 282 796 q 314 710 315 760 q 228 600 310 624 q 197 597 217 597 q 165 600 176 597 q 83 681 100 619 q 81 715 81 690 q 85 754 81 739 q 124 824 96 796 q 194 874 151 853 q 288 901 236 893 q 343 908 299 904 z "},"3":{"ha":799,"x_min":64,"x_max":733,"o":"m 338 908 l 417 908 q 614 844 536 900 q 682 742 665 804 q 685 703 685 728 q 682 663 685 675 q 549 499 660 560 l 526 486 l 525 486 q 517 482 518 482 l 525 479 l 551 471 q 689 379 646 439 q 731 249 733 321 q 643 69 724 138 q 413 -14 558 -4 q 125 75 226 -26 q 69 176 83 117 q 71 247 64 215 q 113 311 81 288 q 190 336 147 336 q 268 311 233 336 q 310 247 300 288 q 313 214 313 238 q 310 178 313 189 q 261 110 297 136 l 253 104 l 264 100 q 311 86 289 89 q 397 82 363 75 q 451 113 431 89 q 482 204 478 142 l 482 315 q 422 428 476 401 q 356 440 399 439 q 335 440 350 440 q 274 443 282 440 q 265 483 265 450 q 274 521 265 517 q 314 526 281 525 q 376 536 361 529 q 458 667 443 563 q 458 751 464 703 q 403 817 451 801 q 369 819 394 819 q 311 811 336 819 l 275 796 l 283 790 q 335 724 322 769 q 338 690 338 714 q 335 657 338 668 q 240 579 314 588 q 225 578 233 578 q 119 644 149 578 q 115 657 117 650 q 113 693 113 668 q 115 731 113 718 q 144 800 122 767 q 315 904 197 882 q 338 908 326 907 z "},"4":{"ha":799,"x_min":44,"x_max":753,"o":"m 524 908 q 607 911 539 915 q 621 908 618 910 q 633 897 629 906 q 636 603 636 892 l 636 314 l 694 314 l 753 314 l 753 264 l 753 214 l 694 214 l 636 214 l 636 157 l 636 100 l 694 100 l 753 100 l 753 50 l 753 0 l 738 0 q 628 3 739 0 q 419 3 532 4 l 290 0 l 272 0 l 272 50 l 272 100 l 350 100 l 428 100 l 428 157 l 428 214 l 236 214 l 44 214 l 44 264 l 44 314 l 275 604 q 513 900 511 899 q 524 908 518 908 m 443 314 l 443 492 l 443 668 l 301 492 l 161 315 l 301 314 l 443 314 z "},"5":{"ha":799,"x_min":67,"x_max":717,"o":"m 142 907 q 150 910 147 910 q 183 900 154 910 q 394 867 285 867 q 607 901 508 867 q 636 910 635 910 q 653 899 650 910 q 656 867 656 896 q 647 828 656 838 q 639 818 649 829 q 522 722 590 761 q 363 668 449 681 q 297 665 343 665 l 246 665 l 240 667 l 240 596 l 240 525 l 250 531 q 385 568 311 567 q 596 514 510 571 q 708 356 683 456 q 717 281 717 319 q 707 203 717 233 q 497 6 665 56 q 390 -14 447 -10 q 211 15 289 -22 q 108 104 143 47 q 83 238 67 171 q 89 256 85 247 q 181 317 115 313 q 228 311 204 318 q 297 239 282 294 q 300 207 300 222 q 281 140 300 171 q 247 111 265 121 q 242 107 242 108 l 276 92 q 279 90 278 90 q 369 81 317 76 q 454 115 425 86 q 486 229 482 144 q 486 308 486 260 q 475 438 485 415 q 446 469 468 454 q 425 478 438 475 q 389 482 414 482 q 272 450 318 482 q 232 411 246 433 q 206 390 218 392 q 181 389 200 389 q 147 392 151 389 q 135 404 139 396 q 132 651 132 410 q 136 904 132 899 l 142 907 z "},"6":{"ha":799,"x_min":67,"x_max":731,"o":"m 456 908 l 517 908 q 638 854 592 900 q 690 728 686 806 q 676 661 692 690 q 638 625 664 638 q 586 614 615 614 q 535 625 557 614 q 496 661 508 638 q 490 763 469 708 q 496 772 493 768 q 529 806 513 796 l 538 810 l 535 813 l 519 817 q 450 818 494 824 q 375 788 407 810 q 321 729 339 767 q 292 567 296 682 l 292 535 l 290 529 l 299 539 q 390 593 340 581 q 458 597 417 599 q 621 540 554 593 q 722 379 704 475 q 729 294 731 344 q 721 203 729 239 q 622 54 700 117 q 465 -12 558 1 q 357 -14 417 -18 q 350 -12 353 -12 q 144 111 210 8 q 67 442 67 229 q 78 571 67 514 q 146 738 99 664 q 372 894 225 858 q 456 908 410 904 m 449 510 l 417 513 q 367 503 386 513 q 296 368 311 476 q 292 243 290 321 q 301 143 293 160 q 382 81 326 89 q 426 81 400 78 q 485 106 464 85 q 503 153 501 122 q 506 192 504 164 l 504 446 q 504 451 504 450 q 488 488 503 471 q 449 510 472 503 z "},"7":{"ha":799,"x_min":88,"x_max":775,"o":"m 138 933 l 138 939 l 188 939 l 238 939 l 238 935 q 249 915 238 924 q 304 903 265 904 q 618 894 410 894 l 775 894 l 775 854 q 772 810 775 814 q 667 689 769 804 q 556 564 557 567 q 471 340 489 481 q 458 142 460 272 q 450 46 457 63 q 447 40 450 44 q 417 4 436 19 q 304 -4 363 -33 q 292 4 297 0 q 261 40 272 19 q 251 101 250 63 q 264 218 251 157 q 328 401 282 311 q 415 543 364 475 q 500 643 444 581 l 538 686 l 458 686 q 224 679 240 686 q 200 619 210 671 q 189 553 189 569 q 139 551 189 551 l 89 551 l 89 557 q 114 746 88 554 q 138 933 138 932 z "},"8":{"ha":799,"x_min":67,"x_max":733,"o":"m 368 908 l 439 908 q 614 850 550 900 q 682 739 668 807 q 685 669 690 704 q 589 524 675 581 l 578 515 l 589 508 q 689 413 650 471 q 731 261 733 343 q 685 114 726 175 q 525 1 632 35 q 397 -14 471 -14 q 239 8 306 -14 q 68 203 86 60 q 67 236 67 219 q 196 447 67 367 q 213 457 211 456 l 199 469 q 118 597 138 519 q 136 769 96 686 q 356 907 194 890 q 368 908 363 908 m 424 819 q 339 815 382 824 q 250 749 258 804 q 250 731 249 740 q 286 681 254 700 q 388 622 294 672 q 481 569 479 569 l 511 597 q 535 635 526 614 q 546 694 546 658 q 533 753 546 729 q 494 796 519 782 q 424 819 464 815 m 415 340 l 311 399 q 279 372 303 399 q 224 272 236 332 q 224 204 218 242 q 249 143 231 165 q 303 100 268 117 q 357 82 332 86 q 438 81 388 76 q 444 82 442 82 q 574 168 554 96 q 575 213 578 188 q 525 279 565 251 l 415 340 z "},"9":{"ha":799,"x_min":63,"x_max":735,"o":"m 360 908 q 457 907 406 911 q 710 653 656 874 q 729 511 725 590 q 728 376 735 440 q 675 193 715 269 q 631 122 654 150 q 376 -12 536 4 q 333 -15 354 -15 q 129 83 183 -15 q 107 167 110 121 q 121 233 106 204 q 160 269 133 257 q 211 281 182 281 q 263 269 240 281 q 301 233 289 257 q 307 132 328 186 q 301 122 304 126 q 272 92 288 100 l 268 89 l 278 86 q 304 81 292 83 q 465 142 407 68 q 474 153 469 147 q 506 332 499 192 q 506 349 506 340 l 507 367 l 497 356 q 421 307 463 321 q 357 299 397 299 q 165 365 240 299 q 154 375 160 369 q 111 426 126 403 q 67 588 71 490 q 136 800 63 722 q 142 807 139 804 q 257 886 193 863 q 360 908 299 904 m 436 817 q 407 821 428 819 q 385 819 386 821 q 369 818 375 819 q 329 804 350 817 q 300 772 311 793 q 290 561 290 751 q 299 424 292 433 q 329 394 311 403 q 381 383 349 385 q 429 392 410 383 q 504 551 492 421 q 506 704 508 582 q 504 729 506 721 q 475 792 503 763 q 436 817 460 807 z "}," ":{"ha":91019,"x_min":0,"x_max":0,"o":""},"!":{"ha":486,"x_min":113,"x_max":372,"o":"m 218 978 q 276 975 247 983 q 365 896 342 958 q 363 810 371 875 q 331 603 357 774 q 282 342 292 350 q 215 340 272 338 q 203 342 204 340 q 190 374 196 346 q 154 603 186 399 q 117 885 114 867 q 119 896 117 888 q 204 974 138 954 q 218 978 211 976 m 219 250 q 274 247 243 256 q 358 172 335 232 q 364 157 363 165 q 364 94 372 125 q 286 8 347 31 q 274 4 279 6 q 211 4 242 -4 q 125 82 147 21 q 121 94 122 89 q 121 157 113 125 q 163 222 132 199 q 219 250 186 242 z "},"\"":{"ha":838,"x_min":50,"x_max":713,"o":"m 160 963 q 211 960 185 967 q 256 938 240 951 q 311 858 293 908 q 326 761 328 811 q 318 693 325 726 q 174 456 290 551 q 143 446 153 439 q 122 464 138 449 q 100 488 104 481 q 111 514 94 501 q 158 558 143 539 q 225 674 206 613 q 238 725 242 717 l 231 722 q 179 714 213 714 q 126 722 146 714 q 54 817 65 747 q 54 861 50 839 q 144 960 68 940 q 160 963 151 961 m 544 963 q 596 960 569 967 q 640 938 625 951 q 696 858 678 908 q 711 761 713 811 q 703 693 710 726 q 558 456 675 551 q 528 446 538 439 q 507 464 522 449 q 485 488 489 481 q 496 514 479 501 q 543 558 528 539 q 610 674 590 613 q 622 725 626 717 l 615 722 q 564 714 597 714 q 511 722 531 714 q 439 817 450 747 q 439 861 435 839 q 529 960 453 940 q 544 963 536 961 z "},"#":{"ha":1331,"x_min":81,"x_max":1240,"o":"m 650 961 q 682 960 665 968 q 707 922 706 950 q 593 547 707 911 q 726 544 593 544 l 861 544 l 867 563 l 928 760 q 985 942 982 939 q 1004 960 990 954 q 1039 960 1019 968 q 1064 922 1063 950 q 950 547 1064 908 q 1079 544 950 544 l 1210 544 l 1215 540 q 1240 501 1240 531 q 1215 464 1240 475 l 1210 461 l 1065 460 l 922 460 l 917 442 q 883 332 914 432 q 853 236 851 235 q 1031 233 853 233 l 1210 233 l 1215 229 q 1240 192 1240 218 q 1215 153 1240 163 l 1210 150 l 1017 149 l 825 149 l 821 133 q 760 -64 811 103 q 699 -251 704 -246 q 650 -267 682 -279 q 635 -257 642 -264 q 622 -225 622 -244 q 736 146 628 -199 q 603 149 736 149 l 468 149 l 464 133 q 403 -64 454 103 q 342 -251 347 -246 q 293 -267 325 -279 q 278 -257 285 -264 q 265 -225 265 -244 q 379 146 271 -199 q 250 149 379 149 l 121 150 l 114 153 q 92 176 99 160 q 111 228 81 208 l 121 233 l 264 233 l 407 233 l 413 251 l 446 363 q 476 457 478 458 q 299 460 476 460 l 121 461 l 111 465 q 92 517 82 481 q 114 540 99 533 l 121 544 l 313 544 l 504 544 l 508 558 l 569 756 q 629 946 625 940 q 650 961 639 957 m 833 457 q 700 460 833 460 l 565 460 l 560 442 q 526 332 557 432 q 496 236 494 235 q 629 233 496 233 l 764 233 l 769 251 l 803 363 q 833 457 835 458 z "},"$":{"ha":799,"x_min":88,"x_max":736,"o":"m 349 1006 l 349 1042 l 399 1042 l 449 1042 l 449 1006 l 449 969 l 465 968 q 646 883 579 951 q 708 708 711 814 q 654 619 704 646 q 554 619 607 594 q 500 707 504 647 q 556 804 499 776 q 565 808 560 807 l 574 813 l 565 819 q 457 868 525 857 l 449 869 l 449 739 l 449 608 l 464 606 q 644 490 578 581 q 697 211 736 369 q 547 24 664 81 q 474 0 518 8 l 451 -6 l 449 -6 l 449 -42 l 449 -78 l 399 -78 l 349 -78 l 349 -42 l 349 -6 l 338 -4 q 183 58 246 8 q 89 260 93 132 q 104 329 88 300 q 160 371 121 357 q 219 372 190 379 q 293 301 278 357 q 293 242 301 272 q 243 179 282 200 q 225 172 238 176 l 218 169 q 239 144 214 169 q 307 106 263 121 q 346 96 336 96 q 349 244 349 96 l 349 393 l 328 399 q 204 454 265 411 q 89 664 97 536 q 89 682 89 674 q 164 882 89 804 q 339 968 226 949 l 349 969 l 349 1006 m 349 750 q 347 868 349 868 l 338 865 q 247 800 271 849 q 235 756 236 779 q 264 678 233 713 q 342 633 297 644 l 349 631 l 349 750 m 464 365 q 450 371 451 371 q 449 235 449 371 q 450 97 449 97 l 492 113 q 553 181 536 136 q 518 332 586 268 q 464 365 497 353 z "},"%":{"ha":1331,"x_min":90,"x_max":1240,"o":"m 297 1039 q 439 1003 374 1051 q 692 897 557 918 q 788 896 744 890 q 1022 1014 932 908 q 1065 1040 1043 1039 q 1094 1029 1083 1040 q 1104 985 1113 1008 q 700 457 1101 978 q 293 -67 294 -65 q 265 -76 282 -76 q 247 -74 253 -76 q 226 -53 233 -67 q 224 -35 224 -47 q 228 -17 224 -24 q 878 828 226 -18 l 875 828 q 865 825 869 826 q 804 815 835 817 q 699 815 758 810 q 536 857 608 828 q 522 861 524 861 q 524 850 522 860 q 531 724 536 794 q 407 500 518 553 q 299 483 360 476 q 165 549 218 496 q 93 704 107 607 q 90 763 90 719 q 93 821 90 804 q 165 975 107 917 q 297 1039 219 1029 m 344 956 q 290 938 313 963 q 269 869 272 918 q 268 763 268 842 q 279 601 268 624 q 290 586 282 594 q 361 575 319 554 q 431 729 422 606 q 431 800 433 764 q 356 951 421 924 q 344 956 350 954 m 1006 479 q 1115 464 1067 488 q 1190 397 1161 442 q 1240 203 1240 322 q 1122 -56 1240 8 q 1115 -60 1119 -58 q 1007 -76 1068 -83 q 874 -11 926 -64 q 801 144 815 47 q 799 203 799 160 q 801 261 799 244 q 874 415 815 357 q 1006 479 928 469 m 1053 396 q 999 378 1021 403 q 978 310 981 358 q 976 203 976 282 q 988 42 976 64 q 999 26 990 35 q 1069 15 1028 -6 q 1139 169 1131 46 q 1139 240 1142 204 q 1064 392 1129 364 q 1053 396 1058 394 z "},"&":{"ha":1242,"x_min":43,"x_max":1161,"o":"m 464 976 q 525 976 497 982 q 618 926 576 968 q 676 781 672 868 q 657 699 678 742 q 575 593 633 651 q 493 522 542 563 q 468 501 468 503 l 496 454 q 658 256 543 378 l 688 225 l 706 243 q 813 374 751 289 l 908 515 q 865 517 908 517 l 821 517 l 821 567 l 821 617 l 833 617 l 931 614 q 1078 614 1015 613 l 1151 617 l 1161 617 l 1161 567 l 1161 517 l 1090 517 l 1019 517 l 975 450 q 883 318 925 374 q 776 190 833 249 l 753 167 l 757 163 q 800 132 768 153 q 968 88 888 74 q 1050 154 1040 103 l 1051 164 l 1101 164 l 1151 164 l 1151 158 q 1149 139 1151 153 q 1036 7 1135 50 q 1015 -1 1026 3 q 913 -15 968 -17 q 649 51 776 -11 l 624 65 l 614 58 q 535 19 582 40 q 406 -12 474 -4 q 356 -14 397 -14 q 267 -4 306 -14 q 149 50 196 13 q 101 99 122 71 q 74 157 86 121 q 132 354 43 268 l 208 413 l 272 461 q 267 482 275 461 q 224 683 228 581 q 238 788 222 739 q 383 953 275 901 q 464 976 422 971 m 519 890 q 482 893 507 896 q 410 831 435 885 q 406 818 407 825 q 399 763 399 799 q 429 592 399 675 l 432 582 l 439 588 q 546 694 513 647 q 571 742 561 717 q 575 775 575 754 q 567 831 575 806 q 519 890 551 878 m 322 367 q 315 379 315 378 l 299 351 q 283 300 288 331 q 283 210 276 256 q 364 89 301 111 q 397 86 374 86 q 464 93 431 86 q 531 114 496 97 l 540 118 l 526 129 q 336 344 419 214 q 322 367 329 356 z "},"'":{"ha":443,"x_min":93,"x_max":371,"o":"m 203 963 q 254 960 228 967 q 317 921 289 951 q 368 800 360 876 q 367 725 371 760 q 340 624 360 672 q 278 517 321 569 q 218 457 258 490 q 186 446 196 439 q 165 464 181 449 q 143 488 147 481 q 157 517 138 501 q 268 674 236 575 q 281 725 285 717 l 274 722 q 222 714 256 714 q 169 722 189 714 q 97 817 108 747 q 97 861 93 839 q 188 960 111 940 q 203 963 194 961 z "},"(":{"ha":621,"x_min":113,"x_max":538,"o":"m 451 1036 l 460 1042 l 488 1042 q 521 1039 517 1042 q 531 1022 531 1033 q 511 993 531 1014 q 319 557 358 836 q 319 136 289 347 q 514 -303 360 -147 q 528 -321 524 -312 q 521 -346 538 -335 q 488 -349 517 -349 l 460 -349 l 451 -343 q 428 -325 442 -336 q 231 -79 306 -226 q 139 443 113 156 q 258 822 160 658 q 428 1018 325 935 q 451 1036 442 1029 z "},")":{"ha":621,"x_min":85,"x_max":493,"o":"m 100 1040 q 132 1042 104 1042 l 160 1042 l 168 1036 q 192 1018 178 1029 q 361 822 294 935 q 485 315 493 604 q 389 -79 478 97 q 192 -325 314 -226 q 168 -343 178 -336 l 160 -349 l 132 -349 q 93 -342 100 -349 q 90 -324 88 -335 q 107 -301 92 -318 q 221 -135 178 -226 q 306 181 288 1 q 306 513 325 346 q 107 994 275 818 q 90 1017 92 1011 q 100 1040 85 1033 z "},"*":{"ha":799,"x_min":100,"x_max":699,"o":"m 379 1039 q 418 1040 396 1043 q 456 1021 439 1035 q 478 975 478 1003 q 465 894 478 964 q 451 821 451 822 q 518 872 454 821 q 593 926 579 919 q 647 925 617 939 q 696 851 693 903 q 688 808 699 828 q 663 785 681 793 q 586 758 653 779 l 514 733 l 586 708 q 663 682 653 688 q 689 656 678 675 q 697 621 697 636 q 663 551 697 579 q 593 540 628 524 q 518 594 579 547 q 451 646 454 646 l 465 572 q 478 492 478 503 q 456 446 478 464 q 399 425 432 425 q 342 446 365 425 q 319 492 319 464 q 332 572 319 500 q 346 646 346 644 q 279 594 343 646 q 204 540 218 547 q 128 557 165 522 q 121 564 124 560 q 100 621 100 589 q 108 656 100 636 q 135 682 119 675 q 211 708 144 688 l 283 733 l 211 758 q 135 785 144 779 q 108 811 119 792 q 100 846 100 831 q 135 915 100 888 q 204 926 169 943 q 279 872 218 919 q 346 821 343 821 l 332 894 q 319 975 319 967 q 342 1021 319 1003 q 379 1039 361 1036 z "},"+":{"ha":1242,"x_min":89,"x_max":1151,"o":"m 606 876 q 638 875 621 883 q 660 851 653 868 q 663 617 663 844 l 663 389 l 892 389 l 1121 389 l 1126 385 q 1151 346 1151 375 q 1126 308 1151 318 l 1121 306 l 892 304 l 663 304 l 663 76 q 660 -158 663 -151 q 638 -182 653 -175 q 603 -182 622 -190 q 581 -158 588 -175 q 578 76 578 -151 l 578 304 l 349 304 l 121 306 l 114 308 q 89 346 89 318 q 114 385 89 375 l 121 389 l 349 389 l 578 389 l 578 617 q 581 850 578 844 q 606 876 588 871 z "},",":{"ha":443,"x_min":93,"x_max":383,"o":"m 203 250 q 253 247 228 254 q 343 167 313 232 q 351 -42 383 81 q 274 -199 331 -126 q 206 -265 243 -239 q 199 -269 201 -269 q 165 -249 186 -271 q 143 -225 147 -232 q 158 -196 138 -211 q 253 -72 221 -144 q 276 6 269 -29 l 276 11 l 272 10 q 222 1 254 1 q 169 10 189 1 q 97 104 108 35 q 97 149 93 126 q 188 247 111 228 q 203 250 194 249 z "},"-":{"ha":532,"x_min":18,"x_max":442,"o":"m 18 308 l 18 393 l 231 393 l 442 393 l 442 308 l 442 224 l 231 224 l 18 224 l 18 308 z "},".":{"ha":443,"x_min":75,"x_max":367,"o":"m 199 250 q 225 251 206 251 q 301 222 268 250 q 331 188 319 208 q 331 63 367 125 q 301 29 319 43 q 254 4 285 14 q 222 1 243 1 q 189 4 200 1 q 125 44 150 15 q 107 178 75 107 q 125 207 114 193 q 161 236 139 222 q 199 250 179 244 z "},"/":{"ha":799,"x_min":88,"x_max":711,"o":"m 651 1039 q 683 1038 667 1046 q 708 997 711 1025 q 442 339 706 983 l 169 -322 q 157 -339 164 -333 q 103 -336 129 -360 q 89 -303 88 -324 q 356 356 92 -289 q 626 1014 625 1010 q 651 1039 636 1035 z "},":":{"ha":443,"x_min":75,"x_max":367,"o":"m 199 615 q 225 617 206 617 q 301 588 268 615 q 331 553 319 574 q 331 428 367 490 q 301 394 319 408 q 254 369 285 379 q 222 367 243 367 q 189 369 200 367 q 125 410 150 381 q 107 543 75 472 q 125 572 114 558 q 161 601 139 588 q 199 615 179 611 m 199 250 q 225 251 206 251 q 301 222 268 250 q 331 188 319 208 q 331 63 367 125 q 301 29 319 43 q 254 4 285 14 q 222 1 243 1 q 189 4 200 1 q 125 44 150 15 q 107 178 75 107 q 125 207 114 193 q 161 236 139 222 q 199 250 179 244 z "},";":{"ha":443,"x_min":75,"x_max":367,"o":"m 199 615 q 225 617 206 617 q 301 588 268 615 q 331 553 319 574 q 331 428 367 490 q 301 394 319 408 q 254 369 285 379 q 222 367 243 367 q 189 369 200 367 q 125 410 150 381 q 107 543 75 472 q 125 572 114 558 q 161 601 139 588 q 199 615 179 611 m 203 250 q 261 244 233 254 q 347 108 332 215 q 350 25 354 68 q 221 -251 335 -139 q 188 -268 199 -274 q 163 -247 181 -265 q 142 -212 139 -222 q 160 -192 144 -207 q 250 -46 221 -131 q 263 6 263 0 q 253 3 261 6 q 222 1 246 1 q 169 10 189 1 q 97 106 108 36 q 103 171 92 139 q 169 242 119 219 q 203 250 190 250 z "},"<":{"ha":486,"x_min":113,"x_max":372,"o":"m 219 693 q 274 690 243 699 q 358 615 335 675 q 364 600 363 608 q 364 538 372 569 q 286 451 347 474 q 274 447 279 449 q 211 447 242 439 q 125 525 147 464 q 121 538 122 532 q 121 600 113 569 q 163 665 132 642 q 219 693 186 685 m 201 351 q 242 354 206 354 q 282 353 279 354 q 294 321 289 349 q 331 92 299 296 q 368 -189 371 -172 q 365 -200 368 -192 q 276 -281 346 -261 q 210 -281 242 -289 q 119 -200 142 -264 q 122 -115 114 -179 q 154 92 128 -79 q 196 346 194 344 l 201 351 z "},"=":{"ha":1242,"x_min":78,"x_max":1151,"o":"m 117 542 q 622 544 124 544 l 1121 544 l 1126 540 q 1151 503 1151 531 q 1126 464 1151 475 l 1121 461 l 621 461 l 121 461 l 111 465 q 99 475 103 471 q 99 529 78 503 q 117 542 106 538 m 119 232 q 622 233 124 233 l 1121 233 l 1126 229 q 1151 192 1151 218 q 1126 153 1151 163 l 1121 150 l 621 150 l 121 150 l 114 153 q 89 193 88 164 q 92 206 89 200 q 119 232 97 224 z "},">":{"ha":754,"x_min":79,"x_max":663,"o":"m 332 693 q 386 690 356 699 q 471 615 447 675 q 476 600 475 608 q 476 538 485 569 q 399 451 460 474 q 386 447 392 449 q 324 447 356 439 q 238 525 260 464 q 233 538 235 532 q 233 600 225 569 q 275 665 244 642 q 332 693 299 685 m 314 351 q 354 354 318 354 q 401 346 396 354 q 406 318 406 339 q 400 211 406 253 q 325 1 383 100 q 303 -67 304 -35 q 303 -119 303 -79 l 303 -179 l 307 -183 q 392 -192 324 -196 q 479 -178 446 -187 l 492 -175 l 483 -165 q 456 -87 454 -133 q 500 -6 460 -33 q 560 11 526 11 q 619 -6 593 11 q 660 -61 651 -29 q 663 -94 663 -71 q 660 -131 663 -119 q 561 -239 642 -199 q 424 -275 508 -264 q 294 -276 368 -281 q 283 -275 288 -275 q 139 -215 186 -262 q 90 -68 79 -158 q 119 8 96 -26 q 164 50 133 28 q 226 103 199 75 q 286 192 268 147 q 306 300 304 232 q 314 351 306 346 z "},"?":{"ha":754,"x_min":90,"x_max":665,"o":"m 317 971 q 442 969 363 974 q 618 900 564 954 q 664 794 660 854 q 635 696 665 743 q 576 643 619 671 q 408 454 433 558 q 406 400 408 451 q 401 349 406 356 q 371 340 396 340 q 356 340 367 340 q 310 347 315 340 q 306 400 306 353 q 307 464 306 451 q 419 703 324 596 q 444 742 440 728 q 451 811 451 761 q 436 874 450 864 q 361 886 417 888 q 267 874 299 886 l 258 871 l 268 861 q 297 782 300 831 q 253 700 293 728 q 193 685 229 685 q 133 700 157 685 q 93 756 101 724 q 90 790 90 765 q 93 825 90 814 q 253 960 122 926 q 317 971 299 969 m 332 250 q 386 247 356 256 q 471 172 447 232 q 476 157 475 165 q 476 94 485 125 q 399 8 460 31 q 386 4 392 6 q 324 4 356 -4 q 238 82 260 21 q 233 94 235 89 q 233 157 225 125 q 275 222 244 199 q 332 250 299 242 z "},"@":{"ha":1242,"x_min":86,"x_max":1157,"o":"m 571 971 q 694 969 618 974 q 1004 840 882 949 q 1126 644 1092 761 q 1149 539 1142 603 q 1150 438 1154 501 q 1149 426 1149 431 q 1025 189 1129 242 q 939 171 990 171 q 869 181 900 172 q 783 221 817 193 q 771 215 778 221 q 665 174 722 183 q 579 172 632 168 q 572 174 575 174 q 413 236 478 186 q 364 285 383 256 q 311 400 326 335 q 303 482 303 433 q 311 564 303 531 q 364 679 326 629 q 413 728 383 708 q 572 790 478 778 q 658 792 610 796 q 665 790 663 790 q 722 774 707 781 q 843 674 797 744 l 850 664 l 889 663 q 931 660 925 663 q 938 622 938 654 q 939 469 938 614 l 940 289 l 943 281 q 985 257 954 251 q 1049 386 1039 269 q 1050 517 1054 433 q 1049 532 1049 528 q 999 694 1039 625 q 815 851 936 803 q 621 886 732 886 q 425 851 508 886 q 300 771 353 824 q 214 631 242 713 q 190 482 190 567 q 196 401 190 432 q 256 246 211 313 q 326 169 283 204 q 531 83 411 100 q 631 78 568 78 q 993 135 814 78 l 1022 143 l 1079 143 q 1142 140 1136 143 q 1149 114 1157 131 q 1131 101 1147 110 q 965 40 1071 72 q 703 -6 836 4 q 560 -7 639 -11 q 549 -6 553 -6 q 236 124 360 15 q 114 319 149 203 q 92 426 99 363 q 90 528 86 461 q 92 539 92 535 q 183 781 108 683 q 269 867 218 829 q 571 971 388 958 m 656 704 q 601 707 631 711 q 542 667 568 699 q 503 578 515 633 q 500 410 486 494 q 582 265 515 296 q 629 256 600 256 q 731 301 690 260 l 746 317 l 746 482 l 746 647 l 731 663 q 656 704 700 694 z "},"A":{"ha":1207,"x_min":56,"x_max":1150,"o":"m 560 968 l 643 968 l 644 968 q 665 953 663 961 l 999 107 l 1001 100 l 1076 100 l 1150 100 l 1150 50 l 1150 0 l 1133 0 l 1014 3 q 794 3 913 4 l 660 0 l 642 0 l 642 50 l 642 100 l 701 100 l 761 101 l 736 164 l 711 226 l 540 226 q 369 225 369 226 l 344 163 l 321 101 q 381 100 321 100 l 439 100 l 439 50 l 439 0 l 425 0 l 322 3 q 156 3 232 4 l 68 0 l 56 0 l 56 50 l 56 100 l 129 100 l 204 100 l 207 107 l 540 953 q 560 968 544 960 m 607 493 l 542 660 l 540 660 l 410 326 l 542 326 l 672 328 l 607 493 z "},"B":{"ha":1136,"x_min":54,"x_max":1046,"o":"m 54 903 l 54 953 l 368 953 q 701 951 689 953 q 871 908 797 946 q 979 803 943 871 q 997 749 992 778 q 999 674 1004 714 q 935 567 983 611 q 806 503 881 522 l 790 499 l 800 497 q 994 401 932 475 q 1042 304 1029 358 q 1044 264 1044 292 q 1017 150 1046 206 q 800 8 957 36 q 779 6 790 7 q 389 0 742 0 l 54 0 l 54 50 l 54 100 l 129 100 l 204 100 l 204 476 l 204 853 l 129 853 l 54 853 l 54 903 m 686 849 l 676 851 l 549 853 l 421 853 l 421 696 l 421 538 l 521 538 q 633 539 625 538 q 764 656 739 551 q 765 664 764 660 q 768 735 774 699 q 686 849 757 826 m 710 449 l 700 453 l 560 453 l 421 453 l 421 276 l 421 100 l 544 100 q 707 107 683 100 q 806 250 799 136 q 806 285 807 267 q 789 368 801 335 q 710 449 764 429 z "},"C":{"ha":1154,"x_min":86,"x_max":1064,"o":"m 608 967 l 686 967 q 792 943 743 963 q 896 888 846 925 q 908 881 908 878 q 960 922 910 881 q 1014 965 1015 967 q 1054 965 1025 972 q 1063 951 1061 961 q 1064 771 1064 938 q 1060 581 1064 586 l 1054 578 q 1010 575 1049 575 q 965 578 971 575 q 954 599 956 585 q 881 776 943 701 q 828 825 853 807 q 735 864 783 857 q 585 857 674 876 q 442 793 496 839 q 394 743 410 768 q 336 476 336 658 q 401 201 336 286 q 418 182 408 192 q 442 160 436 164 q 585 96 496 114 q 722 86 663 79 q 918 199 849 99 q 964 328 960 257 q 974 357 964 351 q 1014 360 979 360 q 1054 357 1049 360 q 1064 325 1064 350 q 1033 204 1060 258 q 810 13 968 68 q 686 -14 751 -8 q 574 -12 642 -18 q 282 88 399 7 q 124 292 171 169 q 92 417 103 344 q 92 531 86 467 q 92 538 92 535 q 161 738 106 649 q 418 933 246 875 q 608 967 507 961 z "},"D":{"ha":1225,"x_min":54,"x_max":1149,"o":"m 54 903 l 54 953 l 361 953 q 689 951 676 953 q 894 897 804 943 q 1119 603 1072 807 q 1125 572 1122 588 q 1114 318 1149 438 q 900 57 1061 138 q 715 3 824 17 q 375 0 700 1 l 54 0 l 54 50 l 54 100 l 129 100 l 204 100 l 204 476 l 204 853 l 129 853 l 54 853 l 54 903 m 624 851 q 517 853 614 853 l 428 853 l 428 476 l 428 100 l 529 100 q 649 103 639 101 q 832 188 769 118 q 893 371 885 247 q 893 578 899 482 q 892 589 892 585 q 782 806 878 744 q 756 819 769 813 q 624 851 703 844 z "},"E":{"ha":1050,"x_min":54,"x_max":1004,"o":"m 54 894 l 54 944 l 485 944 l 917 944 l 917 939 q 939 760 918 933 q 960 581 957 590 l 960 575 l 910 575 l 860 575 l 857 599 q 824 736 844 689 q 664 840 781 824 q 524 844 626 844 l 436 844 l 436 693 l 436 540 l 461 540 q 554 556 525 540 q 589 586 578 565 q 608 685 608 618 l 608 703 l 658 703 l 708 703 l 708 490 l 708 278 l 658 278 l 608 278 l 608 296 q 589 394 608 363 q 554 425 578 415 q 461 440 525 440 l 436 440 l 436 271 l 436 100 l 526 100 q 638 101 625 100 q 838 193 779 111 q 856 225 844 201 q 899 378 881 274 q 904 411 901 406 l 904 415 l 954 415 l 1004 415 l 1004 411 q 972 208 1003 408 q 940 4 942 7 l 940 0 l 497 0 l 54 0 l 54 50 l 54 100 l 129 100 l 204 100 l 204 472 l 204 844 l 129 844 l 54 844 l 54 894 z "},"F":{"ha":1006,"x_min":54,"x_max":938,"o":"m 54 894 l 54 944 l 474 944 l 894 944 l 894 939 q 915 760 897 929 q 938 581 936 586 l 938 575 l 888 575 l 838 575 q 833 604 838 581 q 818 689 826 660 q 696 829 790 797 q 665 838 682 835 q 529 844 638 843 l 436 844 l 436 683 l 436 522 l 458 522 q 569 553 539 522 q 600 657 596 579 l 600 685 l 650 685 l 700 685 l 700 472 l 700 260 l 650 260 l 600 260 l 600 288 q 569 392 596 365 q 458 422 539 422 l 436 422 l 436 261 l 436 100 l 531 100 l 624 100 l 624 50 l 624 0 l 604 0 l 453 3 q 206 3 321 4 q 72 0 71 0 l 54 0 l 54 50 l 54 100 l 129 100 l 204 100 l 204 472 l 204 844 l 129 844 l 54 844 l 54 894 z "},"G":{"ha":1256,"x_min":86,"x_max":1174,"o":"m 608 967 q 653 967 614 969 q 742 958 701 967 q 896 886 828 939 q 907 881 907 879 q 958 922 908 881 q 1013 965 1014 967 q 1053 965 1024 972 q 1061 951 1060 961 q 1063 771 1063 938 q 1058 581 1063 586 l 1053 578 q 1008 575 1047 575 q 964 578 969 575 q 953 599 954 585 q 889 764 944 688 q 718 867 822 854 q 551 849 644 876 q 361 676 406 807 q 338 476 338 607 q 347 331 338 381 q 522 114 376 169 q 724 88 618 76 q 768 96 750 89 q 824 136 810 111 q 831 221 831 156 l 831 283 l 731 283 l 631 283 l 631 333 l 631 383 l 653 383 l 810 381 q 1044 381 947 379 l 1158 383 l 1174 383 l 1174 333 l 1174 283 l 1118 283 l 1063 283 l 1063 150 q 1053 3 1063 10 q 1013 10 1043 -1 q 907 53 938 35 l 896 60 l 885 50 q 714 -12 824 1 q 593 -14 668 -18 q 582 -12 586 -12 q 419 19 497 -6 q 178 190 264 71 q 92 417 108 290 q 92 531 86 467 q 92 538 92 535 q 178 763 108 663 q 457 944 274 897 q 608 967 522 961 z "},"H":{"ha":1250,"x_min":54,"x_max":1194,"o":"m 54 903 l 54 953 l 72 953 q 206 950 71 953 q 436 950 321 949 l 568 953 l 586 953 l 586 903 l 586 853 l 511 853 l 436 853 l 436 700 l 436 546 l 625 546 l 813 546 l 813 700 l 813 853 l 738 853 l 663 853 l 663 903 l 663 953 l 681 953 l 813 950 q 1043 950 928 949 q 1176 953 1178 953 l 1194 953 l 1194 903 l 1194 853 l 1119 853 l 1044 853 l 1044 476 l 1044 100 l 1119 100 l 1194 100 l 1194 50 l 1194 0 l 1176 0 l 1044 3 q 814 3 929 4 q 681 0 679 0 l 663 0 l 663 50 l 663 100 l 738 100 l 813 100 l 813 274 l 813 446 l 625 446 l 436 446 l 436 274 l 436 100 l 511 100 l 586 100 l 586 50 l 586 0 l 568 0 q 435 3 569 0 q 204 3 319 4 l 72 0 l 54 0 l 54 50 l 54 100 l 129 100 l 204 100 l 204 476 l 204 853 l 129 853 l 54 853 l 54 903 z "},"I":{"ha":606,"x_min":28,"x_max":576,"o":"m 28 903 l 28 953 l 47 953 l 183 950 q 421 950 303 949 l 558 953 l 576 953 l 576 903 l 576 853 l 497 853 l 418 853 l 418 476 l 418 100 l 497 100 l 576 100 l 576 50 l 576 0 l 557 0 l 421 3 q 183 3 303 4 l 46 0 l 28 0 l 28 50 l 28 100 l 107 100 l 186 100 l 186 476 l 186 853 l 107 853 l 28 853 l 28 903 z "},"J":{"ha":825,"x_min":-8,"x_max":732,"o":"m 200 903 l 200 953 l 221 953 q 375 950 219 953 q 606 950 508 949 l 717 953 l 732 953 l 732 903 l 732 853 l 676 853 l 619 853 l 619 514 l 619 176 l 614 160 q 564 74 601 111 q 367 -10 496 6 q 213 -12 286 -19 q 26 69 81 4 q 0 125 7 93 q 0 193 -8 157 q 83 278 17 257 q 119 281 94 281 q 157 278 144 281 q 239 193 222 256 q 239 125 247 161 q 219 83 231 96 q 215 75 214 75 q 265 69 224 72 q 300 71 290 69 q 392 161 375 83 q 396 514 394 174 l 396 853 l 299 853 l 200 853 l 200 903 z "},"K":{"ha":1251,"x_min":54,"x_max":1183,"o":"m 54 903 l 54 953 l 72 953 q 206 950 71 953 q 436 950 321 949 l 568 953 l 586 953 l 586 903 l 586 853 l 511 853 l 436 853 l 436 669 l 436 488 l 449 499 q 654 682 443 493 l 847 853 l 807 853 l 765 853 l 765 903 l 765 953 l 781 953 q 903 950 779 953 q 1075 950 1008 949 l 1151 953 l 1161 953 l 1161 903 l 1161 853 l 1081 853 l 999 853 l 849 719 l 697 585 l 871 342 l 1044 100 l 1114 100 l 1183 100 l 1183 50 l 1183 0 l 1169 0 l 1063 3 q 851 3 969 4 q 715 0 714 0 l 697 0 l 697 50 l 697 100 l 742 100 l 788 101 l 664 272 l 539 444 l 488 399 l 436 354 l 436 226 l 436 100 l 511 100 l 586 100 l 586 50 l 586 0 l 568 0 q 435 3 569 0 q 204 3 319 4 l 72 0 l 54 0 l 54 50 l 54 100 l 129 100 l 204 100 l 204 476 l 204 853 l 129 853 l 54 853 l 54 903 z "},"L":{"ha":961,"x_min":54,"x_max":893,"o":"m 54 903 l 54 953 l 72 953 q 206 950 71 953 q 453 950 321 949 l 604 953 l 624 953 l 624 903 l 624 853 l 531 853 l 436 853 l 436 476 l 436 100 l 496 100 q 572 103 560 100 q 675 140 629 110 q 782 335 760 199 q 793 414 793 396 q 843 415 793 415 l 893 415 l 893 408 q 872 208 890 401 q 850 7 851 10 l 850 0 l 451 0 l 54 0 l 54 50 l 54 100 l 129 100 l 204 100 l 204 476 l 204 853 l 129 853 l 54 853 l 54 903 z "},"M":{"ha":1517,"x_min":54,"x_max":1461,"o":"m 54 903 l 54 953 l 249 953 l 444 953 l 451 949 q 475 917 465 942 l 621 569 l 758 242 l 896 569 l 1042 917 q 1067 949 1051 942 l 1074 953 l 1267 953 l 1461 953 l 1461 903 l 1461 853 l 1386 853 l 1311 853 l 1311 476 l 1311 100 l 1386 100 l 1461 100 l 1461 50 l 1461 0 l 1444 0 q 1317 3 1446 0 q 1097 3 1207 4 q 969 0 968 0 l 953 0 l 953 50 l 953 100 l 1028 100 l 1103 100 l 1103 471 l 1101 839 q 929 428 1094 825 q 754 17 757 19 q 733 1 747 6 q 682 0 719 -3 q 674 1 676 0 q 653 17 660 6 q 482 419 650 19 q 314 821 314 822 l 313 464 l 313 461 l 313 100 l 388 100 l 463 100 l 463 50 l 463 0 l 449 0 q 347 3 450 0 q 169 3 258 4 q 68 0 67 0 l 54 0 l 54 50 l 54 100 l 129 100 l 204 100 l 204 476 l 204 853 l 129 853 l 54 853 l 54 903 z "},"N":{"ha":1250,"x_min":54,"x_max":1194,"o":"m 54 903 l 54 953 l 246 953 l 439 953 l 444 950 q 690 651 449 949 q 932 353 936 349 l 936 349 l 936 600 l 936 853 l 861 853 l 786 853 l 786 903 l 786 953 l 800 953 l 901 950 q 1079 950 990 949 q 1181 953 1179 953 l 1194 953 l 1194 903 l 1194 853 l 1119 853 l 1044 853 l 1044 436 q 1042 15 1044 21 q 1031 3 1039 7 q 990 0 1025 0 q 950 3 956 0 q 632 390 947 4 q 317 781 314 786 l 313 785 l 313 443 l 313 100 l 388 100 l 463 100 l 463 50 l 463 0 l 449 0 q 347 3 450 0 q 169 3 258 4 q 68 0 67 0 l 54 0 l 54 50 l 54 100 l 129 100 l 204 100 l 204 476 l 204 853 l 129 853 l 54 853 l 54 903 z "},"O":{"ha":1200,"x_min":86,"x_max":1113,"o":"m 553 967 q 668 965 599 969 q 972 831 857 944 q 1107 535 1085 718 q 1107 414 1113 479 q 1107 408 1107 411 q 979 125 1086 235 q 863 42 928 75 q 668 -12 776 0 q 538 -12 610 -18 q 531 -12 533 -12 q 221 125 333 11 q 92 408 113 233 q 92 528 86 461 q 92 535 92 532 q 126 676 103 618 q 336 908 189 836 q 553 967 431 957 m 628 876 q 429 814 511 889 q 394 774 410 796 q 343 632 357 717 q 339 390 329 531 q 342 367 340 378 q 442 135 357 207 q 650 83 533 58 q 757 135 710 96 q 857 367 842 207 q 858 614 871 483 q 856 632 857 624 q 822 743 846 692 q 628 876 764 861 z "},"P":{"ha":1092,"x_min":54,"x_max":1000,"o":"m 54 903 l 54 953 l 351 953 q 669 951 657 953 q 929 847 842 939 q 997 710 983 789 q 1000 667 1000 697 q 993 603 1000 628 q 915 474 976 528 q 718 390 838 407 q 549 385 681 385 l 436 385 l 436 243 l 436 100 l 511 100 l 586 100 l 586 50 l 586 0 l 568 0 q 435 3 569 0 q 204 3 319 4 l 72 0 l 54 0 l 54 50 l 54 100 l 129 100 l 204 100 l 204 476 l 204 853 l 129 853 l 54 853 l 54 903 m 636 850 q 525 853 628 851 l 428 853 l 428 665 l 428 476 l 511 476 q 669 488 633 476 q 735 531 717 501 q 754 681 756 567 q 746 772 753 746 q 726 810 740 796 q 636 850 701 839 z "},"Q":{"ha":1200,"x_min":86,"x_max":1118,"o":"m 553 967 q 668 965 599 969 q 972 831 857 944 q 1107 535 1085 718 q 1107 414 1113 479 q 1107 408 1107 411 q 979 125 1086 235 q 864 43 926 75 q 843 32 843 33 q 863 13 838 32 q 936 -22 897 -18 q 1032 -19 981 -26 q 1068 0 1068 -12 q 1071 11 1068 6 q 1104 22 1082 33 q 1115 11 1111 18 q 1118 -18 1118 6 q 1040 -224 1113 -153 q 1024 -237 1032 -231 q 968 -265 1000 -254 q 928 -268 954 -268 q 889 -265 901 -268 q 860 -254 868 -258 q 782 -168 811 -229 q 738 -36 764 -133 q 729 -4 729 -3 l 710 -7 q 599 -14 661 -14 q 531 -12 546 -14 q 221 125 333 11 q 92 408 113 233 q 92 528 86 461 q 92 535 92 532 q 126 676 103 618 q 336 908 189 836 q 553 967 431 957 m 626 876 q 431 815 511 888 q 333 590 349 743 q 335 347 319 469 q 336 332 335 339 q 436 131 354 197 q 446 124 443 124 q 447 131 446 126 l 451 146 q 551 228 474 208 q 590 233 569 232 q 694 203 646 235 q 757 143 722 186 l 765 132 l 776 143 q 858 304 838 200 q 871 449 869 354 q 828 736 872 642 q 789 796 810 774 q 626 876 725 865 m 629 144 q 581 147 606 150 q 531 108 532 139 q 560 79 533 89 q 599 76 567 76 q 646 79 632 76 q 689 90 679 85 l 693 92 l 690 96 q 679 111 686 104 q 629 144 658 138 z "},"R":{"ha":1197,"x_min":54,"x_max":1196,"o":"m 54 903 l 54 953 l 342 953 q 682 946 633 951 q 910 858 824 926 q 993 722 975 803 q 993 651 999 692 q 958 575 982 608 q 881 504 928 532 q 814 472 856 490 l 800 467 l 811 461 q 882 396 858 431 q 908 347 901 371 q 928 243 918 326 q 944 143 939 158 q 1036 71 967 71 q 1058 74 1051 71 q 1092 136 1086 97 q 1106 161 1092 151 q 1167 163 1115 165 q 1178 161 1176 163 q 1190 144 1188 156 q 1188 101 1196 132 q 1089 -7 1165 19 q 1061 -14 1075 -11 q 915 -11 1018 -21 q 694 128 725 8 q 690 146 692 136 q 689 233 689 156 q 682 342 689 318 q 610 426 663 403 q 517 435 590 435 l 501 435 l 428 435 l 428 268 l 428 100 l 503 100 l 578 100 l 578 50 l 578 0 l 560 0 q 429 3 561 0 q 203 3 317 4 q 72 0 71 0 l 54 0 l 54 50 l 54 100 l 129 100 l 204 100 l 204 476 l 204 853 l 129 853 l 54 853 l 54 903 m 600 851 q 503 853 589 853 l 428 853 l 428 686 l 428 519 l 517 519 q 647 528 617 521 q 711 554 681 535 q 746 619 738 575 q 747 733 753 667 q 707 822 743 797 q 692 831 700 826 q 600 851 653 847 z "},"S":{"ha":888,"x_min":86,"x_max":800,"o":"m 360 967 q 472 963 418 972 q 617 907 549 951 q 629 901 625 900 q 665 933 636 908 q 703 965 701 964 q 722 968 707 968 q 743 965 739 968 q 751 946 750 961 q 753 801 753 926 q 743 639 753 646 q 703 636 738 636 q 663 639 668 636 q 651 668 654 643 q 625 750 643 713 q 579 811 608 785 q 413 874 519 869 q 268 799 299 878 q 261 754 261 779 q 271 706 261 726 q 346 642 292 663 q 453 617 356 636 q 564 592 553 596 q 674 540 625 576 q 794 339 774 467 q 794 242 800 300 q 763 140 786 189 q 689 49 735 83 q 535 -12 625 0 q 428 -14 500 -18 q 417 -12 421 -12 q 225 47 297 0 q 213 51 217 53 q 176 19 206 44 q 139 -12 140 -11 q 119 -15 135 -15 q 99 -12 103 -15 q 90 7 92 -8 q 89 150 89 26 q 92 306 89 301 q 97 313 93 308 q 138 317 104 317 q 179 314 174 317 q 189 285 189 308 q 242 161 193 210 q 342 104 278 125 q 506 86 424 78 q 525 89 517 88 q 589 122 564 97 q 625 197 617 150 q 586 318 636 268 q 532 351 565 342 q 421 378 526 354 q 307 403 321 397 q 146 513 204 432 q 89 690 86 592 q 147 860 93 789 q 297 956 199 929 q 360 967 331 964 z "},"T":{"ha":1111,"x_min":57,"x_max":1053,"o":"m 86 929 l 86 938 l 554 938 l 1024 938 l 1024 929 l 1039 753 q 1053 576 1051 579 l 1053 568 l 1003 568 q 953 569 953 568 q 946 642 953 597 q 922 744 938 704 q 851 817 901 793 q 796 833 831 828 q 725 838 783 836 l 671 838 l 671 469 l 671 100 l 778 100 l 883 100 l 883 50 l 883 0 l 861 0 l 697 3 q 413 3 554 4 l 249 0 l 226 0 l 226 50 l 226 100 l 333 100 l 439 100 l 439 469 l 439 838 l 385 838 q 314 833 326 836 q 214 785 249 821 q 178 718 192 763 q 160 594 167 678 q 157 569 157 571 q 107 568 157 568 l 57 568 l 57 576 l 72 753 q 86 929 85 926 z "},"U":{"ha":1229,"x_min":54,"x_max":1174,"o":"m 54 903 l 54 953 l 72 953 q 206 950 71 953 q 436 950 321 949 l 568 953 l 586 953 l 586 903 l 586 853 l 511 853 l 436 853 l 436 553 q 442 222 438 242 q 444 211 442 219 q 490 129 456 158 q 661 85 547 83 q 857 153 793 89 q 913 271 897 194 q 915 569 914 283 l 915 853 l 840 853 l 765 853 l 765 903 l 765 953 l 779 953 l 881 950 q 1058 950 969 949 q 1160 953 1161 953 l 1174 953 l 1174 903 l 1174 853 l 1099 853 l 1024 853 l 1024 576 q 1022 283 1024 294 q 957 115 1014 188 q 785 4 894 35 q 658 -15 724 -14 q 422 22 522 -18 q 353 57 389 35 q 268 132 303 88 q 206 288 214 203 q 204 578 204 297 l 204 853 l 129 853 l 54 853 l 54 903 z "},"V":{"ha":1207,"x_min":35,"x_max":1171,"o":"m 35 903 l 35 953 l 50 953 l 167 950 q 385 950 268 949 l 519 953 l 538 953 l 538 903 l 538 853 l 479 853 l 421 853 l 543 565 q 665 276 665 275 l 910 850 q 853 853 910 853 l 794 853 l 794 903 l 794 953 l 808 953 l 911 950 q 1074 950 1000 949 q 1160 953 1158 953 l 1171 953 l 1171 903 l 1171 853 l 1100 853 l 1028 853 l 850 432 q 668 7 669 10 q 646 -10 661 -4 q 572 -11 632 -14 q 560 -10 563 -11 q 538 7 544 -4 q 356 432 536 10 l 178 853 l 106 853 l 35 853 l 35 903 z "},"W":{"ha":1651,"x_min":33,"x_max":1617,"o":"m 33 903 l 33 953 l 49 953 l 160 950 q 374 950 257 949 q 507 953 508 953 l 525 953 l 525 903 l 525 853 l 465 853 q 406 850 406 853 l 507 581 q 610 310 610 306 q 690 519 610 301 q 771 735 771 733 l 749 794 l 728 853 l 661 853 l 594 853 l 594 903 l 594 953 l 610 953 l 721 950 q 933 950 818 949 q 1069 953 1071 953 l 1088 953 l 1088 903 l 1088 853 l 1026 853 q 967 851 967 853 l 1069 579 l 1172 308 l 1378 851 q 1311 853 1378 853 l 1243 853 l 1243 903 l 1243 953 l 1257 953 q 1367 950 1256 953 q 1528 950 1461 949 q 1606 953 1604 953 l 1617 953 l 1617 903 l 1617 853 l 1551 853 l 1485 853 l 1481 842 q 1324 425 1479 835 q 1168 13 1165 7 q 1146 -8 1160 -4 q 1107 -11 1139 -11 q 1054 -1 1065 -11 q 1046 10 1047 6 q 933 303 1044 11 l 825 590 l 717 303 q 604 10 606 11 q 596 -1 603 6 q 543 -11 585 -11 q 504 -8 511 -11 q 482 13 490 -4 q 326 425 485 7 q 169 842 171 835 l 165 853 l 99 853 l 33 853 l 33 903 z "},"X":{"ha":1207,"x_min":46,"x_max":1161,"o":"m 67 903 l 67 953 l 82 953 q 203 950 81 953 q 426 950 307 949 l 564 953 l 582 953 l 582 903 l 582 853 l 536 853 q 489 851 489 853 l 626 651 q 700 751 628 651 l 772 853 l 713 853 l 654 853 l 654 903 l 654 953 l 669 953 l 789 950 q 979 950 892 949 l 1079 953 l 1093 953 l 1093 903 l 1093 853 l 999 853 l 906 853 l 799 703 l 692 554 l 847 328 l 1003 100 l 1082 100 l 1161 100 l 1161 50 l 1161 0 l 1146 0 q 1025 3 1147 0 q 801 3 921 4 l 664 0 l 646 0 l 646 50 l 646 100 l 693 100 q 739 101 739 100 l 557 365 l 461 233 l 367 101 l 426 100 l 485 100 l 485 50 l 485 0 l 469 0 l 350 3 q 160 3 247 4 l 60 0 l 46 0 l 46 50 l 46 100 l 140 100 l 235 100 l 364 281 q 493 463 492 461 l 360 657 l 226 853 l 146 853 l 67 853 l 67 903 z "},"Y":{"ha":1207,"x_min":25,"x_max":1181,"o":"m 25 903 l 25 953 l 42 953 l 163 950 q 389 950 268 949 l 528 953 l 547 953 l 547 903 l 547 853 l 499 853 l 450 853 l 561 683 q 671 514 671 513 q 782 683 674 514 l 893 853 l 846 853 l 797 853 l 797 903 l 797 953 l 811 953 l 917 950 q 1082 950 1007 949 l 1169 953 l 1181 953 l 1181 903 l 1181 853 l 1101 853 l 1024 853 l 868 617 l 714 381 l 714 240 l 714 100 l 790 100 l 865 100 l 865 50 l 865 0 l 847 0 l 715 3 q 489 3 601 4 q 358 0 357 0 l 340 0 l 340 50 l 340 100 l 415 100 l 490 100 l 490 240 l 490 382 l 336 617 l 183 853 l 104 853 l 25 853 l 25 903 z "},"Z":{"ha":976,"x_min":89,"x_max":896,"o":"m 128 938 l 128 953 l 497 953 q 872 950 867 953 q 883 938 881 946 q 886 885 890 926 q 885 878 886 879 l 626 489 l 369 107 l 442 106 q 536 107 524 106 q 721 179 661 115 q 758 233 743 201 q 796 417 785 289 l 796 429 l 846 429 l 896 429 l 896 418 q 883 215 893 407 q 871 11 874 24 l 871 0 l 490 0 q 104 3 110 0 q 89 26 90 8 q 89 47 89 33 q 90 79 89 76 q 350 468 94 86 l 607 853 l 542 853 q 413 846 450 853 q 281 783 329 832 q 211 596 221 722 l 211 583 l 161 583 l 111 583 l 111 599 l 119 768 q 128 938 128 936 z "},"[":{"ha":443,"x_min":178,"x_max":407,"o":"m 178 347 l 178 1042 l 293 1042 l 407 1042 l 407 1000 l 407 957 l 335 957 l 263 957 l 263 347 l 263 -262 l 335 -262 l 407 -262 l 407 -304 l 407 -347 l 293 -347 l 178 -347 l 178 347 z "},"\\":{"ha":838,"x_min":124,"x_max":788,"o":"m 293 961 q 308 963 299 965 q 351 919 321 957 q 340 893 357 906 q 293 849 308 868 q 226 733 246 794 q 214 682 210 690 l 221 685 q 274 693 239 693 q 326 685 304 693 q 397 589 386 658 q 392 524 403 556 q 326 453 375 476 q 274 444 304 444 q 218 456 240 444 q 149 529 172 479 q 126 607 131 563 q 128 682 124 647 q 225 900 143 806 q 293 961 257 940 m 678 961 q 693 963 683 965 q 736 919 706 957 q 725 893 742 906 q 678 849 693 868 q 611 733 631 794 q 599 682 594 690 l 606 685 q 658 693 624 693 q 711 685 689 693 q 782 589 771 658 q 776 524 788 556 q 711 453 760 476 q 658 444 689 444 q 603 456 625 444 q 533 529 557 479 q 511 607 515 563 q 513 682 508 647 q 610 900 528 806 q 678 961 642 940 z "},"]":{"ha":443,"x_min":35,"x_max":264,"o":"m 35 1000 l 35 1042 l 150 1042 l 264 1042 l 264 347 l 264 -347 l 150 -347 l 35 -347 l 35 -304 l 35 -262 l 107 -262 l 179 -262 l 179 347 l 179 957 l 107 957 l 35 957 l 35 1000 z "},"^":{"ha":799,"x_min":171,"x_max":626,"o":"m 285 879 l 399 964 l 626 793 l 572 714 q 485 764 569 713 l 399 815 l 313 764 q 225 714 228 713 l 171 793 q 285 879 171 796 z "},"_":{"ha":443,"x_min":89,"x_max":367,"o":"m 194 963 q 253 961 221 969 q 294 944 282 953 q 332 904 318 928 q 326 785 367 842 q 314 771 321 778 q 253 736 289 746 q 189 736 224 728 q 128 771 153 746 q 96 836 100 799 q 153 946 89 908 q 194 963 172 957 z "},"`":{"ha":443,"x_min":72,"x_max":351,"o":"m 242 961 q 257 963 247 965 q 300 919 269 957 q 286 890 306 906 q 175 733 207 832 q 163 682 158 690 l 169 685 q 222 693 188 693 q 275 685 253 693 q 346 589 335 658 q 340 524 351 556 q 275 453 324 476 q 222 444 253 444 q 167 456 189 444 q 89 549 110 485 q 74 646 72 596 q 82 714 75 681 q 165 890 101 811 q 235 957 196 931 q 242 961 239 960 z "},"a":{"ha":776,"x_min":46,"x_max":775,"o":"m 313 628 l 426 626 q 658 489 608 606 q 667 464 664 476 l 671 449 l 672 282 q 675 114 672 119 q 735 100 686 103 q 767 94 757 100 q 775 50 775 86 q 765 6 775 14 q 676 0 751 0 q 567 10 593 1 q 511 53 524 24 q 506 65 506 64 q 493 58 506 67 q 329 -6 432 10 q 244 -7 275 -11 q 68 96 119 7 q 50 139 56 117 q 46 178 46 154 q 57 235 46 211 q 103 292 74 268 q 226 350 151 329 q 444 383 318 378 l 479 385 l 479 410 l 478 446 l 478 447 q 421 529 469 506 q 342 544 390 544 q 282 542 285 544 l 286 533 q 296 483 297 514 q 293 451 296 461 q 268 410 285 426 q 225 383 250 392 q 193 381 214 381 q 163 383 172 381 q 118 410 136 392 q 93 451 101 426 q 90 483 90 461 q 93 515 90 506 q 228 617 114 592 q 313 628 265 625 m 479 235 q 478 307 479 307 q 471 306 476 307 q 328 276 389 300 q 246 203 263 250 q 244 153 239 183 q 308 81 258 97 q 315 78 311 79 q 424 99 367 69 q 432 103 428 100 q 469 140 458 119 q 479 196 478 157 l 479 235 z "},"b":{"ha":888,"x_min":31,"x_max":839,"o":"m 169 958 q 306 964 308 964 l 314 964 l 314 769 l 314 575 q 329 582 315 575 q 551 625 429 628 q 650 607 604 624 q 769 519 725 579 q 833 322 829 438 q 718 56 839 147 q 647 17 686 32 q 544 -7 599 -3 q 458 -4 499 -12 q 351 28 400 4 q 288 68 308 49 l 283 71 l 257 36 l 229 1 l 179 0 l 129 0 l 129 411 q 126 829 129 822 q 108 847 122 843 q 51 853 89 853 l 33 853 l 33 903 l 33 953 l 38 953 q 169 958 31 953 m 521 538 q 431 535 483 544 q 329 485 369 521 l 322 479 l 322 314 l 322 150 l 339 133 q 411 86 374 99 q 553 94 486 61 q 564 101 558 97 q 599 140 590 122 q 621 285 618 175 q 621 292 621 288 q 601 481 622 438 q 585 503 596 492 q 564 521 572 515 q 521 538 539 533 z "},"c":{"ha":710,"x_min":54,"x_max":664,"o":"m 367 628 l 463 626 q 615 563 569 613 q 646 479 649 528 q 617 410 644 438 q 574 383 599 392 q 542 381 563 381 q 511 383 521 381 q 467 410 485 392 q 442 451 450 426 q 439 483 439 461 q 447 531 438 513 q 449 538 450 536 l 414 538 q 349 529 371 538 q 285 467 304 511 q 268 393 272 439 q 267 265 264 354 q 268 247 267 253 q 303 143 276 178 q 343 107 319 122 q 451 82 392 79 q 564 165 532 88 q 574 179 569 176 q 614 182 579 182 q 654 179 649 182 q 664 160 664 174 q 657 140 663 157 q 446 -6 604 15 q 350 -7 411 -11 q 340 -6 344 -6 q 188 49 250 7 q 64 222 93 108 q 54 308 54 261 q 64 397 54 357 q 140 533 85 479 q 317 622 207 601 l 347 626 q 367 628 356 628 z "},"d":{"ha":888,"x_min":49,"x_max":853,"o":"m 613 958 q 749 964 751 964 l 757 964 l 757 547 q 760 124 757 131 q 778 106 764 110 q 835 100 797 100 l 853 100 l 853 50 q 851 0 853 0 q 708 -4 825 0 q 565 -8 592 -8 q 564 21 564 -8 l 564 49 l 557 44 q 424 -3 499 11 q 304 -6 358 -12 q 140 74 201 13 q 53 321 49 164 q 71 428 54 375 q 239 603 115 556 q 247 606 243 604 q 354 625 296 622 q 560 583 465 628 l 572 578 l 572 700 q 569 829 572 822 q 551 847 565 843 q 494 853 532 853 l 476 853 l 476 903 l 476 953 l 481 953 q 613 958 474 953 m 456 536 q 397 539 428 542 q 304 500 336 532 q 267 371 271 465 q 265 286 265 338 q 289 129 267 163 q 300 115 293 122 q 435 79 346 64 q 493 99 465 85 q 547 139 522 114 l 564 156 l 564 319 l 564 483 l 557 489 q 456 536 511 528 z "},"e":{"ha":732,"x_min":42,"x_max":689,"o":"m 354 628 l 447 626 q 606 557 546 613 q 685 368 675 488 q 672 306 689 317 q 461 303 667 303 l 257 303 l 257 275 q 296 139 261 178 q 303 132 299 136 q 425 83 343 92 q 478 85 457 81 q 583 160 553 96 q 586 167 585 164 q 608 186 593 185 q 636 188 615 188 q 672 185 667 188 q 685 156 689 176 q 657 101 676 126 q 461 -6 594 15 q 357 -7 422 -11 q 349 -6 353 -6 q 61 206 124 24 q 47 264 53 233 q 47 356 42 303 q 47 363 47 360 q 113 514 63 453 q 165 564 131 539 q 354 628 242 619 m 417 542 q 364 543 396 546 q 276 481 301 532 q 258 396 263 451 l 258 383 l 388 383 l 518 383 l 517 390 q 417 542 503 519 z "},"f":{"ha":488,"x_min":49,"x_max":640,"o":"m 468 971 q 506 972 472 972 q 544 968 538 971 q 588 947 569 961 q 618 914 601 936 q 638 871 629 899 q 640 835 640 858 q 638 801 640 813 q 553 733 618 740 q 539 732 546 732 q 490 743 513 732 q 440 801 453 761 q 438 833 438 811 q 446 881 436 863 l 449 886 l 444 886 q 411 879 436 886 q 350 838 372 867 q 329 800 336 822 q 321 688 321 774 l 321 617 l 397 617 l 472 617 l 472 567 l 472 517 l 401 517 l 329 517 l 329 308 l 329 100 l 389 100 l 449 100 l 449 50 l 449 0 l 435 0 l 329 3 q 156 3 238 4 l 61 0 l 49 0 l 49 50 l 49 100 l 97 100 l 144 100 l 144 308 l 144 517 l 101 517 l 58 517 l 58 567 l 58 617 l 101 617 l 144 617 l 144 694 l 146 774 l 149 786 q 183 857 161 828 q 419 967 253 946 q 443 969 431 968 q 468 971 453 971 z "},"g":{"ha":799,"x_min":29,"x_max":778,"o":"m 654 631 l 681 632 l 682 632 q 710 628 703 631 q 758 589 740 618 q 775 529 778 561 q 761 489 774 507 q 694 457 740 454 q 635 488 656 460 l 632 492 l 635 483 q 643 458 643 460 q 647 414 647 440 q 644 372 647 388 q 601 289 632 326 q 504 225 568 249 q 429 207 472 213 q 206 225 303 189 l 190 231 q 185 207 189 231 q 203 157 182 178 q 231 138 215 143 l 240 135 l 364 133 q 507 131 482 133 q 675 82 613 121 q 763 -68 750 36 q 721 -189 771 -140 q 457 -278 640 -267 q 225 -262 321 -285 q 38 -124 63 -222 q 33 -100 33 -112 q 107 14 29 -28 q 118 19 113 17 l 126 24 l 122 31 q 82 150 82 82 q 117 261 82 210 l 125 272 l 114 283 q 81 329 96 301 q 65 372 71 353 q 63 414 63 386 q 65 454 63 440 q 108 538 78 500 q 206 601 142 578 q 356 625 269 625 q 528 592 458 625 l 538 586 l 547 593 q 654 631 594 624 m 382 539 q 308 535 339 544 q 260 501 274 528 q 250 414 250 478 q 260 325 250 349 q 301 293 268 304 q 385 288 331 282 q 439 311 421 293 q 458 365 454 325 l 458 461 q 439 515 454 501 q 382 539 419 535 m 621 532 q 622 540 621 536 l 613 538 l 604 535 l 615 519 q 625 503 624 504 q 624 513 626 503 q 621 532 621 526 m 474 -36 l 238 -36 q 194 -65 208 -40 q 222 -153 169 -112 q 244 -167 232 -161 q 336 -192 282 -183 q 451 -193 385 -197 q 461 -192 457 -192 q 593 -136 557 -179 q 608 -85 615 -108 q 586 -60 601 -68 q 474 -36 554 -40 z "},"h":{"ha":888,"x_min":42,"x_max":872,"o":"m 181 958 q 317 964 319 964 l 325 964 l 325 747 l 325 529 l 333 538 q 443 606 381 585 q 507 622 481 618 q 603 624 542 628 q 613 622 608 622 q 757 532 719 610 q 772 481 765 515 q 776 282 775 465 l 776 100 l 825 100 l 872 100 l 872 50 l 872 0 l 860 0 q 764 3 861 0 q 597 3 681 4 l 500 0 l 488 0 l 488 50 l 488 100 l 536 100 l 583 100 l 583 274 q 582 463 583 454 q 522 540 575 533 q 500 540 513 540 q 386 489 433 536 q 342 415 353 456 q 333 296 333 392 q 333 238 333 279 l 333 100 l 382 100 l 429 100 l 429 50 l 429 0 l 417 0 l 319 3 q 153 3 236 4 q 57 0 56 0 l 44 0 l 44 50 l 44 100 l 93 100 l 140 100 l 140 461 q 138 829 140 822 q 119 847 133 843 q 63 853 100 853 l 44 853 l 44 903 l 44 953 l 49 953 q 181 958 42 953 z "},"i":{"ha":443,"x_min":49,"x_max":415,"o":"m 197 964 q 222 965 200 965 q 253 961 246 963 q 331 897 307 944 q 343 846 343 871 q 331 794 343 819 q 253 729 307 746 q 218 726 240 726 q 183 729 194 726 q 104 794 128 746 q 93 846 93 817 q 94 874 93 865 q 119 921 101 899 q 197 964 149 956 m 188 619 q 321 625 326 625 l 329 625 l 329 363 l 329 100 l 372 100 l 415 100 l 415 50 l 415 0 l 403 0 l 314 3 q 156 3 238 4 l 61 0 l 49 0 l 49 50 l 49 100 l 97 100 l 144 100 l 144 290 q 143 489 144 483 q 125 508 138 506 q 69 514 106 514 l 53 514 l 53 564 l 53 614 l 57 614 l 188 619 z "},"j":{"ha":488,"x_min":-111,"x_max":388,"o":"m 242 964 q 267 965 244 965 q 297 961 290 963 q 375 897 351 944 q 388 846 388 871 q 375 794 388 819 q 297 729 351 746 q 263 726 285 726 q 228 729 239 726 q 149 794 172 746 q 138 846 138 817 q 139 874 138 865 q 164 921 146 899 q 242 964 193 956 m 239 619 q 379 625 383 625 l 388 625 l 388 267 q 382 -110 386 -97 q 379 -119 383 -107 q 292 -224 358 -183 q 229 -253 263 -242 q 114 -276 181 -272 q 33 -275 71 -281 q -101 -185 -68 -256 q -111 -133 -111 -164 q -101 -83 -111 -104 q -35 -32 -82 -43 q 18 -32 -8 -25 q 85 -83 65 -43 q 94 -132 94 -104 q 85 -183 94 -162 l 79 -192 l 88 -193 l 108 -193 q 194 -114 169 -189 q 203 -4 201 -94 q 203 203 203 40 l 203 489 l 199 494 q 157 513 190 510 q 128 514 146 514 l 97 514 l 97 564 l 97 614 l 101 614 l 239 619 z "},"k":{"ha":843,"x_min":31,"x_max":815,"o":"m 169 958 q 306 964 308 964 l 314 964 l 314 668 l 315 372 l 401 444 l 489 517 l 474 517 l 460 517 l 460 567 l 460 617 l 472 617 l 572 614 q 711 614 658 613 l 772 617 l 781 617 l 781 567 l 781 517 l 714 517 l 646 517 l 567 451 l 489 385 l 597 242 l 706 100 l 761 100 l 815 100 l 815 50 l 815 0 l 804 0 l 725 3 q 572 3 657 4 q 474 0 472 0 l 460 0 l 460 50 l 460 100 l 475 100 l 492 101 l 424 189 l 357 276 l 354 274 q 329 254 347 271 l 307 236 l 307 168 l 307 100 l 356 100 l 403 100 l 403 50 l 403 0 l 390 0 l 299 3 q 138 3 218 4 q 46 0 47 0 l 33 0 l 33 50 l 33 100 l 82 100 l 129 100 l 129 461 q 126 829 129 822 q 108 847 122 843 q 51 853 89 853 l 33 853 l 33 903 l 33 953 l 38 953 q 169 958 31 953 z "},"l":{"ha":443,"x_min":46,"x_max":425,"o":"m 185 958 q 321 964 324 964 l 329 964 l 329 532 l 329 100 l 378 100 l 425 100 l 425 50 l 425 0 l 413 0 l 318 3 q 156 3 236 4 l 61 0 l 49 0 l 49 50 l 49 100 l 97 100 l 144 100 l 144 461 q 142 829 144 822 q 124 847 138 843 q 67 853 104 853 l 49 853 l 49 903 l 49 953 l 53 953 q 185 958 46 953 z "},"m":{"ha":1331,"x_min":42,"x_max":1315,"o":"m 178 619 q 310 625 314 625 l 318 625 l 318 574 l 318 522 l 329 533 q 413 592 364 569 q 507 622 453 614 q 611 622 549 628 q 618 622 615 622 q 697 597 664 617 q 757 532 739 574 l 761 522 l 772 533 q 856 592 808 569 q 950 622 896 614 q 1046 624 985 628 q 1056 622 1051 622 q 1131 603 1097 618 q 1215 481 1200 568 q 1219 282 1218 465 l 1219 100 l 1268 100 l 1315 100 l 1315 50 l 1315 0 l 1303 0 q 1207 3 1304 0 q 1040 3 1124 4 l 943 0 l 931 0 l 931 50 l 931 100 l 979 100 l 1026 100 l 1026 274 q 1025 463 1026 454 q 965 540 1018 533 q 943 540 956 540 q 829 489 876 536 q 785 415 796 456 q 776 296 776 392 q 776 238 776 279 l 776 100 l 825 100 l 872 100 l 872 50 l 872 0 l 860 0 l 763 3 q 596 3 679 4 q 500 0 499 0 l 488 0 l 488 50 l 488 100 l 536 100 l 583 100 l 583 274 q 582 463 583 454 q 522 540 575 533 q 500 540 513 540 q 386 489 433 536 q 342 415 353 456 q 333 296 333 392 q 333 238 333 279 l 333 100 l 382 100 l 429 100 l 429 50 l 429 0 l 417 0 l 319 3 q 153 3 236 4 q 57 0 56 0 l 44 0 l 44 50 l 44 100 l 93 100 l 140 100 l 140 292 q 138 490 140 483 q 119 508 133 504 q 63 514 100 514 l 44 514 l 44 564 l 44 614 l 49 614 q 178 619 42 614 z "},"n":{"ha":888,"x_min":42,"x_max":872,"o":"m 178 619 q 310 625 314 625 l 318 625 l 318 574 l 318 522 l 329 533 q 413 592 364 569 q 507 622 453 614 q 603 624 542 628 q 613 622 608 622 q 757 532 719 610 q 772 481 765 515 q 776 282 775 465 l 776 100 l 825 100 l 872 100 l 872 50 l 872 0 l 860 0 l 763 3 q 596 3 679 4 q 500 0 499 0 l 488 0 l 488 50 l 488 100 l 536 100 l 583 100 l 583 274 q 582 463 583 454 q 522 540 575 533 q 500 540 513 540 q 386 489 433 536 q 342 415 353 456 q 333 296 333 392 q 333 238 333 279 l 333 100 l 382 100 l 429 100 l 429 50 l 429 0 l 417 0 l 319 3 q 153 3 236 4 q 57 0 56 0 l 44 0 l 44 50 l 44 100 l 93 100 l 140 100 l 140 292 q 138 490 140 483 q 119 508 133 504 q 63 514 100 514 l 44 514 l 44 564 l 44 614 l 49 614 q 178 619 42 614 z "},"o":{"ha":799,"x_min":25,"x_max":756,"o":"m 368 628 l 453 626 q 726 438 658 603 q 735 417 731 428 q 753 314 751 367 q 697 122 756 203 q 614 46 667 76 q 518 6 579 22 q 399 -7 468 -7 q 279 6 329 -7 q 183 46 218 22 q 100 122 131 76 q 50 242 64 174 q 97 488 25 376 q 117 515 106 503 q 347 626 197 611 q 368 628 356 628 m 440 540 q 372 543 407 546 q 293 510 318 535 q 260 426 265 485 q 257 340 257 397 q 271 150 256 193 q 361 85 290 100 q 436 85 393 79 q 503 117 479 93 q 536 207 531 143 q 539 242 538 222 l 538 415 q 538 421 538 419 q 504 510 531 485 q 440 540 482 532 z "},"p":{"ha":888,"x_min":31,"x_max":835,"o":"m 169 619 q 306 625 308 625 l 314 625 l 314 600 l 314 574 l 331 582 q 486 622 396 611 q 544 624 500 624 q 635 613 599 624 q 811 447 761 576 q 832 343 828 396 q 831 256 835 294 q 724 60 811 129 q 569 -4 663 11 q 460 -6 521 -11 q 329 40 382 8 l 322 43 l 322 -62 l 322 -169 l 371 -169 l 418 -169 l 418 -219 l 418 -269 l 406 -269 l 308 -267 q 142 -267 225 -265 q 46 -269 44 -269 l 33 -269 l 33 -219 l 33 -169 l 82 -169 l 129 -169 l 129 157 q 126 490 129 483 q 108 508 122 504 q 51 514 89 514 l 33 514 l 33 564 l 33 614 l 38 614 q 169 619 31 614 m 515 531 q 488 535 510 532 q 331 483 400 538 l 322 476 l 322 313 l 322 149 l 338 133 q 443 79 383 88 q 526 90 489 72 q 618 258 603 129 q 619 358 624 300 q 618 367 618 364 q 590 461 610 422 q 558 506 579 485 q 515 531 536 524 z "},"q":{"ha":843,"x_min":54,"x_max":853,"o":"m 335 624 q 422 622 371 626 q 508 597 476 611 q 600 536 556 576 l 607 529 l 636 576 l 665 625 l 711 625 l 757 625 l 757 228 l 757 -169 l 806 -169 l 853 -169 l 853 -219 l 853 -269 l 840 -269 l 743 -267 q 576 -267 660 -265 q 481 -269 479 -269 l 468 -269 l 468 -219 l 468 -169 l 517 -169 l 564 -169 l 564 -58 l 564 53 l 551 44 q 442 1 499 13 q 181 43 294 -31 q 107 117 136 72 q 57 250 69 169 q 54 308 54 267 q 56 360 54 349 q 211 589 81 521 q 335 624 265 617 m 438 533 q 343 510 382 540 q 304 471 321 494 q 265 293 263 406 q 297 150 269 204 q 371 81 321 97 q 401 78 381 78 q 482 96 446 78 q 567 168 532 117 l 572 176 l 572 299 l 572 419 l 564 436 q 525 490 549 465 q 438 533 486 525 z "},"r":{"ha":658,"x_min":33,"x_max":618,"o":"m 163 619 q 290 625 293 625 l 299 625 l 299 589 l 300 553 l 304 560 q 375 615 331 599 q 525 607 443 640 q 557 592 543 601 q 613 513 604 560 q 610 465 618 488 q 560 403 599 422 q 513 393 536 393 q 465 403 486 393 q 413 465 425 422 q 411 494 411 472 q 414 526 411 517 q 417 539 419 539 q 392 531 413 543 q 354 497 371 521 q 317 375 328 456 q 314 228 315 361 l 314 100 l 374 100 l 435 100 l 435 50 l 435 0 l 419 0 l 314 3 q 140 3 222 4 q 46 0 47 0 l 33 0 l 33 50 l 33 100 l 82 100 l 129 100 l 129 292 q 126 490 129 483 q 108 508 122 504 q 51 514 89 514 l 33 514 l 33 564 l 33 614 l 38 614 l 163 619 z "},"s":{"ha":631,"x_min":53,"x_max":575,"o":"m 265 628 l 353 628 q 432 611 400 624 l 442 608 l 467 618 l 492 629 l 507 629 q 526 626 522 629 q 536 599 535 621 q 536 539 536 586 q 526 453 536 460 q 486 450 521 450 q 446 453 451 450 q 436 471 436 460 q 396 533 436 514 q 306 550 363 550 q 221 538 251 550 q 185 486 185 522 q 188 474 185 481 q 218 443 192 456 q 317 417 238 432 q 418 396 389 404 q 544 304 501 367 q 572 242 564 272 q 575 200 575 228 q 572 157 575 171 q 467 19 554 60 q 374 -6 429 1 q 318 -7 364 -7 q 229 1 268 -7 q 181 19 204 8 l 165 26 l 132 10 l 97 -8 l 83 -8 q 63 -6 67 -8 q 53 19 54 -1 q 53 99 53 33 q 61 201 53 194 q 101 206 68 206 q 143 203 138 206 q 157 178 147 200 q 260 83 183 101 q 388 85 322 67 q 443 142 436 101 q 392 217 451 192 q 306 238 369 226 q 235 251 242 249 q 64 376 104 282 q 57 399 60 388 q 54 438 54 411 q 56 472 54 464 q 151 599 74 560 q 265 628 199 624 z "},"t":{"ha":621,"x_min":29,"x_max":531,"o":"m 218 874 l 218 882 l 268 882 l 318 882 l 318 750 l 318 617 l 411 617 l 504 617 l 504 567 l 504 517 l 411 517 l 318 517 l 318 328 q 324 119 319 132 q 328 111 324 118 q 353 86 336 94 q 374 83 360 83 q 392 86 388 83 q 426 138 414 94 q 431 197 429 147 l 431 246 l 481 246 l 531 246 l 531 201 q 521 115 531 143 q 467 36 506 69 q 367 -7 421 1 q 324 -8 354 -8 q 231 8 267 -7 q 156 64 185 24 q 126 143 133 94 q 125 336 125 150 l 125 517 l 78 517 l 29 517 l 29 558 l 29 601 l 42 601 q 121 632 86 606 q 211 807 192 688 q 218 874 218 844 z "},"u":{"ha":888,"x_min":44,"x_max":872,"o":"m 185 619 q 325 625 329 625 l 333 625 l 333 379 q 338 96 333 108 q 426 76 344 76 q 494 88 465 76 q 567 153 542 108 q 582 199 581 179 q 583 346 583 206 q 581 490 583 483 q 563 508 576 504 q 506 514 543 514 l 488 514 l 488 564 q 489 614 488 614 l 632 619 q 775 625 774 625 q 776 378 776 625 q 779 124 776 131 q 797 106 783 110 q 854 100 817 100 l 872 100 l 872 50 q 871 0 872 0 q 732 -4 844 0 q 593 -8 619 -8 q 592 31 592 -8 l 592 68 l 583 61 q 440 -4 521 10 q 301 -4 378 -15 q 296 -3 299 -3 q 219 21 253 3 q 144 122 161 50 l 142 136 l 140 313 q 138 494 140 483 q 96 513 131 508 q 63 514 88 514 l 44 514 l 44 564 l 44 614 l 49 614 l 185 619 z "},"v":{"ha":843,"x_min":35,"x_max":807,"o":"m 35 567 l 35 617 l 47 617 l 133 614 q 292 614 207 613 l 389 617 l 401 617 l 401 567 l 401 517 l 371 517 l 340 517 l 403 375 q 465 231 465 229 q 471 236 467 228 q 531 371 476 247 l 594 517 l 564 517 l 533 517 l 533 567 l 533 617 l 543 617 l 618 614 q 736 614 682 613 l 799 617 l 807 617 l 807 567 l 807 517 l 756 517 l 704 517 l 594 267 q 482 13 499 44 q 460 -4 475 1 q 393 -6 446 -8 q 382 -4 385 -6 q 360 13 367 1 q 247 267 343 44 l 139 517 l 86 517 l 35 517 l 35 567 z "},"w":{"ha":1154,"x_min":33,"x_max":1119,"o":"m 33 567 l 33 617 l 44 617 l 128 614 q 276 614 200 613 l 364 617 l 376 617 l 376 567 l 376 517 l 353 517 q 329 515 329 517 l 435 250 l 479 361 l 522 471 l 515 490 q 507 513 507 510 l 506 517 l 464 517 l 422 517 l 422 567 l 422 617 l 431 617 l 501 614 q 642 614 564 613 l 732 617 l 744 617 l 744 567 l 744 517 l 713 517 l 679 517 l 738 367 l 797 218 q 857 367 797 214 l 917 517 l 879 517 l 842 517 l 842 567 l 842 617 l 853 617 l 932 614 q 1051 614 1000 613 l 1111 617 l 1119 617 l 1119 567 l 1119 517 l 1072 517 l 1024 517 l 1019 507 q 922 258 1022 514 q 824 13 824 14 q 801 -4 817 1 q 725 -4 786 -10 q 703 17 711 0 q 638 178 704 15 l 576 333 l 515 178 q 450 17 449 15 q 428 -4 442 0 l 353 -4 l 351 -4 q 329 13 336 1 l 231 258 q 132 507 136 500 l 129 517 l 81 517 l 33 517 l 33 567 z "},"x":{"ha":843,"x_min":28,"x_max":815,"o":"m 35 567 l 35 617 l 46 617 l 131 614 q 286 614 203 613 l 383 617 l 396 617 l 396 567 l 396 517 l 381 517 l 365 517 l 401 471 l 438 425 q 476 471 439 425 l 514 517 l 493 517 l 472 517 l 472 567 l 472 617 l 483 617 l 568 614 q 704 614 642 613 l 778 617 l 788 617 l 788 567 l 788 517 l 717 517 l 644 517 l 574 431 l 503 343 q 597 221 503 340 l 692 100 l 753 100 l 815 100 l 815 50 l 815 0 l 804 0 l 719 3 q 564 3 647 4 l 467 0 l 454 0 l 454 50 l 454 100 l 469 100 l 485 101 l 440 158 l 396 215 l 389 207 l 301 101 q 322 100 301 100 l 343 100 l 343 50 l 343 0 l 331 0 l 246 3 q 111 3 174 4 l 38 0 l 28 0 l 28 50 l 28 100 l 99 100 l 171 100 l 249 194 q 329 293 328 292 l 332 296 l 246 406 l 160 517 l 97 517 l 35 517 l 35 567 z "},"y":{"ha":843,"x_min":29,"x_max":806,"o":"m 36 567 l 36 617 l 47 617 l 132 614 q 292 614 207 613 l 389 617 l 401 617 l 401 567 l 401 517 l 371 517 q 342 514 342 517 l 406 371 q 469 233 467 233 l 593 514 q 564 517 593 517 l 533 517 l 533 567 l 533 617 l 543 617 l 618 614 q 736 614 682 613 q 797 617 796 617 l 806 617 l 806 567 l 806 517 l 754 517 l 703 517 l 569 211 q 425 -112 425 -111 q 271 -258 371 -219 q 131 -271 194 -292 q 38 -175 60 -246 q 31 -125 29 -150 q 57 -62 32 -89 q 99 -39 75 -46 q 128 -35 111 -35 q 157 -39 144 -35 q 199 -62 181 -46 q 225 -122 221 -87 l 225 -132 l 178 -132 l 131 -132 l 131 -140 q 167 -192 135 -181 q 239 -181 193 -200 q 319 -103 294 -154 l 365 0 q 251 260 365 1 l 139 517 l 88 517 l 36 517 l 36 567 z "},"z":{"ha":710,"x_min":44,"x_max":642,"o":"m 83 606 l 83 617 l 350 617 q 622 614 617 617 q 638 575 636 601 q 635 550 638 554 q 461 318 632 543 l 290 92 l 376 92 q 458 113 425 96 q 533 244 519 143 q 535 251 535 249 q 542 314 542 283 q 592 315 542 315 l 642 315 l 642 307 q 629 158 639 297 q 617 8 619 18 l 617 0 l 340 0 q 60 3 64 0 q 44 43 46 19 q 47 71 44 65 q 222 304 57 86 q 393 532 393 528 l 290 529 q 192 465 218 517 q 167 351 174 432 l 167 339 l 117 339 l 67 339 l 67 350 l 75 478 q 83 606 83 604 z "},"{":{"ha":799,"x_min":0,"x_max":797,"o":"m 0 382 l 0 424 l 399 424 l 797 424 l 797 382 l 797 339 l 399 339 l 0 339 l 0 382 z "},"|":{"ha":1597,"x_min":0,"x_max":1596,"o":"m 0 382 l 0 424 l 799 424 l 1596 424 l 1596 382 l 1596 339 l 799 339 l 0 339 l 0 382 z "},"}":{"ha":799,"x_min":179,"x_max":689,"o":"m 293 994 q 392 960 346 1003 q 422 897 421 933 q 401 836 424 865 q 269 713 390 818 l 264 707 l 222 732 l 179 758 l 225 935 q 293 994 244 986 m 558 994 q 657 960 611 1003 q 688 897 686 933 q 667 836 689 865 q 535 713 656 818 l 529 707 l 488 732 l 444 758 l 490 935 q 558 994 510 986 z "},"~":{"ha":799,"x_min":133,"x_max":664,"o":"m 313 961 q 368 954 339 968 q 417 919 381 947 q 481 888 453 889 q 522 897 501 888 q 592 956 556 913 l 600 964 l 632 936 l 664 910 l 554 783 q 449 738 494 725 q 381 779 428 740 q 317 811 344 810 q 276 801 296 811 q 206 743 243 786 l 197 735 l 165 763 l 133 789 l 243 915 q 313 961 281 953 z "},"":{"ha":443,"x_min":49,"x_max":415,"o":"m 188 619 q 321 625 326 625 l 329 625 l 329 363 l 329 100 l 372 100 l 415 100 l 415 50 l 415 0 l 403 0 l 314 3 q 156 3 238 4 l 61 0 l 49 0 l 49 50 l 49 100 l 97 100 l 144 100 l 144 290 q 143 489 144 483 q 125 508 138 506 q 69 514 106 514 l 53 514 l 53 564 l 53 614 l 57 614 l 188 619 z "},"":{"ha":1447,"x_min":57,"x_max":1401,"o":"m 431 903 l 431 953 l 872 953 l 1314 953 l 1314 947 q 1336 768 1315 942 q 1357 589 1354 599 l 1357 583 l 1307 583 l 1257 583 l 1257 589 q 1253 618 1256 593 q 1190 794 1238 747 q 1044 851 1143 843 q 957 853 1035 853 l 888 853 l 888 681 l 888 508 l 928 508 q 1004 518 983 510 q 1064 579 1049 532 q 1072 643 1071 603 l 1072 671 l 1122 671 l 1172 671 l 1172 458 l 1172 246 l 1122 246 l 1072 246 l 1072 274 q 1064 338 1071 314 q 1004 399 1049 385 q 928 408 983 407 l 888 408 l 888 254 l 888 100 l 974 100 q 1072 103 1071 103 q 1217 164 1165 115 q 1294 372 1269 218 q 1301 411 1300 407 l 1301 415 l 1351 415 l 1401 415 l 1401 411 q 1369 208 1400 408 q 1338 4 1339 7 l 1338 0 l 947 0 l 557 0 l 557 50 l 557 100 l 614 100 l 669 100 l 669 254 l 669 408 l 557 408 l 446 408 l 383 256 l 322 101 q 382 100 322 100 l 440 100 l 440 50 l 440 0 l 426 0 l 324 3 q 157 3 233 4 l 69 0 l 57 0 l 57 50 l 57 100 l 131 100 l 206 100 l 356 475 l 507 851 q 469 853 507 853 l 431 853 l 431 903 m 669 681 l 669 853 l 647 853 l 624 853 l 621 843 l 551 672 q 486 508 486 510 l 578 508 l 669 508 l 669 681 z "},"":{"ha":1624,"x_min":86,"x_max":1578,"o":"m 597 967 q 661 967 660 967 q 814 958 699 967 q 1196 953 882 953 l 1490 953 l 1490 947 q 1513 768 1492 942 q 1533 589 1531 599 l 1533 583 l 1483 583 l 1433 583 l 1433 589 l 1428 622 q 1351 807 1411 757 q 1346 811 1349 808 q 1214 851 1300 846 q 1113 853 1203 853 l 1031 853 l 1031 699 l 1031 544 l 1082 544 q 1213 561 1181 544 q 1238 578 1222 565 q 1254 603 1250 593 q 1271 683 1269 632 l 1271 707 l 1321 707 l 1371 707 l 1371 494 l 1371 282 l 1321 282 l 1271 282 l 1271 306 q 1254 386 1269 357 q 1238 411 1250 396 q 1213 428 1222 424 q 1082 444 1181 444 l 1031 444 l 1031 272 l 1031 100 l 1117 100 q 1222 101 1211 100 q 1392 167 1335 110 q 1429 221 1414 189 q 1472 381 1454 276 l 1478 411 l 1478 415 l 1528 415 l 1578 415 l 1578 411 q 1546 208 1576 408 q 1514 4 1515 7 l 1514 0 l 1208 0 q 814 -6 882 0 q 668 -15 715 -14 q 281 99 431 -19 q 217 164 242 132 q 128 357 150 246 q 169 710 86 544 q 526 958 272 914 q 597 967 561 964 m 697 882 l 618 882 q 511 846 560 875 q 414 749 454 813 q 357 564 368 671 q 356 438 351 515 q 357 426 357 431 q 383 292 363 351 q 576 81 439 121 q 647 69 603 71 q 793 115 758 67 q 818 193 811 142 q 824 476 824 231 q 818 760 824 722 q 751 871 807 849 q 697 882 729 879 z "},"":{"ha":1207,"x_min":414,"x_max":792,"o":"m 574 974 q 654 972 607 976 q 769 901 744 957 q 769 817 792 858 q 653 746 742 761 q 553 746 611 740 q 436 817 464 761 q 436 901 414 858 q 574 974 467 965 m 643 915 l 561 915 q 517 888 525 911 q 517 831 511 868 q 576 801 525 804 q 603 801 588 801 q 686 825 675 801 q 689 831 688 828 q 689 888 694 850 q 643 915 681 911 z "},"":{"ha":961,"x_min":54,"x_max":893,"o":"m 54 894 l 54 944 l 451 944 l 850 944 l 850 939 q 872 760 851 933 q 893 581 890 590 l 893 575 l 843 575 l 793 575 l 793 581 q 774 694 781 668 q 703 807 751 776 q 604 842 664 832 q 513 844 596 843 l 436 844 l 436 472 l 436 100 l 531 100 l 624 100 l 624 50 l 624 0 l 604 0 l 453 3 q 206 3 321 4 q 72 0 71 0 l 54 0 l 54 50 l 54 100 l 129 100 l 204 100 l 204 472 l 204 844 l 129 844 l 54 844 l 54 894 z "},"":{"ha":1331,"x_min":78,"x_max":1251,"o":"m 619 968 q 668 969 622 969 l 711 969 l 718 965 q 733 954 726 961 q 994 485 738 950 q 1251 19 1251 21 q 1243 3 1251 7 q 665 0 1239 0 q 86 3 90 0 q 79 11 82 4 q 79 22 78 15 q 336 488 90 44 q 597 954 592 949 q 619 968 607 965 m 740 465 l 594 728 q 449 467 594 733 l 303 204 l 593 203 l 885 203 q 740 465 885 204 z "},"":{"ha":1242,"x_min":61,"x_max":1181,"o":"m 581 967 q 693 965 624 969 q 1081 739 963 938 q 1138 593 1119 674 q 1103 247 1181 408 q 1092 226 1097 236 q 1049 163 1078 197 q 982 96 1026 133 q 692 -12 865 6 q 549 -12 628 -18 q 258 96 375 6 q 192 163 214 133 q 133 256 160 200 q 103 597 61 415 q 156 735 119 672 q 310 890 211 831 q 581 967 424 957 m 668 879 q 594 882 636 886 q 385 764 453 867 q 324 557 333 688 q 322 399 318 497 q 324 382 324 388 q 360 233 335 286 q 539 83 410 115 q 621 74 572 74 q 703 83 667 74 q 881 233 831 115 q 917 382 906 286 q 918 540 922 438 q 917 557 917 550 q 856 764 907 688 q 668 879 792 860 m 411 478 l 411 626 l 461 626 l 511 626 l 511 603 l 511 579 l 621 579 l 729 579 l 729 603 l 729 626 l 779 626 l 829 626 l 829 478 l 829 329 l 779 329 l 729 329 l 729 353 l 729 376 l 621 376 l 511 376 l 511 353 l 511 329 l 461 329 l 411 329 l 411 478 z "},"":{"ha":1119,"x_min":56,"x_max":1063,"o":"m 517 968 l 599 968 l 600 968 q 621 953 615 963 q 778 526 621 951 q 931 104 931 106 l 932 100 l 997 100 l 1063 100 l 1063 50 l 1063 0 l 1047 0 q 935 3 1049 0 q 718 3 835 4 q 582 0 581 0 l 564 0 l 564 50 l 564 100 l 625 100 q 685 101 685 100 l 493 626 l 397 365 q 301 103 304 106 q 363 100 301 100 l 424 100 l 424 50 l 424 0 l 410 0 l 307 3 q 147 3 217 4 q 67 0 68 0 l 56 0 l 56 50 l 56 100 l 121 100 l 186 100 l 188 104 l 340 526 q 497 953 497 951 q 517 968 501 961 z "},"":{"ha":1065,"x_min":67,"x_max":997,"o":"m 88 938 l 532 938 l 976 938 q 983 785 976 924 l 989 632 l 939 632 l 889 632 l 889 649 q 872 739 885 719 q 757 750 865 749 q 532 751 696 751 q 196 743 213 751 q 192 739 193 742 q 175 649 179 719 l 175 632 l 125 632 l 75 632 l 81 785 q 88 938 88 924 m 222 488 l 222 615 l 272 615 l 322 615 l 322 599 l 322 581 l 532 581 l 742 581 l 742 599 l 742 615 l 792 615 l 842 615 l 842 488 l 842 360 l 792 360 l 742 360 l 742 378 l 742 394 l 532 394 l 322 394 l 322 378 l 322 360 l 272 360 l 222 360 l 222 488 m 67 319 q 117 321 67 321 l 167 321 l 167 304 q 186 197 172 211 q 360 186 196 188 q 532 186 418 186 q 878 197 857 186 q 897 304 892 211 l 897 321 l 947 321 q 997 319 997 321 l 990 161 q 985 1 985 3 q 532 0 985 0 q 79 1 79 0 l 74 161 q 67 319 67 318 z "},"":{"ha":1250,"x_min":54,"x_max":1194,"o":"m 54 894 l 54 944 l 625 944 l 1194 944 l 1194 894 l 1194 844 l 1119 844 l 1044 844 l 1044 472 l 1044 100 l 1119 100 l 1194 100 l 1194 50 l 1194 0 l 1176 0 l 1044 3 q 814 3 929 4 q 681 0 679 0 l 663 0 l 663 50 l 663 100 l 738 100 l 813 100 l 813 472 l 813 844 l 625 844 l 436 844 l 436 472 l 436 100 l 511 100 l 586 100 l 586 50 l 586 0 l 568 0 q 435 3 569 0 q 204 3 319 4 l 72 0 l 54 0 l 54 50 l 54 100 l 129 100 l 204 100 l 204 472 l 204 844 l 129 844 l 54 844 l 54 894 z "},"":{"ha":1154,"x_min":89,"x_max":1064,"o":"m 104 950 q 565 953 108 953 l 1021 953 l 1021 947 q 1043 768 1022 942 q 1064 589 1061 599 l 1064 583 l 1014 583 q 964 585 964 583 l 961 606 q 928 721 950 678 q 789 836 883 813 q 776 839 782 838 q 543 853 719 853 l 525 853 l 413 853 l 572 672 q 733 488 729 494 q 733 465 740 476 q 543 293 732 461 l 356 128 l 364 126 l 710 129 q 890 196 836 140 q 896 203 893 199 q 964 389 946 260 l 964 396 l 1014 396 l 1064 396 l 1064 390 q 1042 199 1063 385 q 1021 6 1025 17 l 1021 0 l 565 0 q 97 7 104 0 q 89 25 89 13 q 118 61 89 33 q 297 221 147 89 l 501 401 l 449 461 l 244 692 q 92 868 96 861 q 89 903 89 872 q 99 947 89 942 q 104 950 101 949 z "},"":{"ha":1242,"x_min":86,"x_max":1154,"o":"m 293 967 q 313 968 294 968 q 561 815 468 969 q 614 690 593 761 l 621 668 l 625 688 q 788 929 675 860 q 871 963 825 953 q 1079 913 990 986 q 1149 790 1138 865 q 1140 742 1154 751 l 1136 739 l 1097 739 l 1058 739 l 1054 742 q 1043 761 1043 750 q 1011 779 1043 772 q 913 782 982 786 l 889 778 l 888 778 q 836 753 858 769 q 794 707 814 738 q 744 571 757 653 q 736 367 738 529 q 736 311 736 349 l 736 100 l 829 100 l 924 100 l 924 50 l 924 0 l 904 0 l 753 3 q 489 3 619 4 q 336 0 335 0 l 317 0 l 317 50 l 317 100 l 411 100 l 504 100 l 504 311 q 497 565 503 529 q 496 571 496 569 q 425 733 479 678 q 381 768 406 754 q 328 782 356 779 l 233 779 q 231 779 232 779 q 197 761 197 772 q 186 742 197 750 l 182 739 l 143 739 l 104 739 l 100 742 q 92 790 86 751 q 124 872 97 833 q 293 967 179 954 z "},"":{"ha":1154,"x_min":88,"x_max":1065,"o":"m 281 903 l 281 953 l 300 953 l 449 950 q 704 950 576 949 l 853 953 l 872 953 l 872 903 l 872 853 l 779 853 l 685 853 l 685 779 l 685 706 l 689 706 q 719 703 692 706 q 921 650 842 688 q 1061 500 1046 593 q 1061 453 1065 476 q 921 303 1046 358 q 719 250 842 265 q 689 247 692 247 l 685 247 l 685 174 l 685 100 l 779 100 l 872 100 l 872 50 l 872 0 l 853 0 l 704 3 q 449 3 576 4 l 300 0 l 281 0 l 281 50 l 281 100 l 375 100 l 468 100 l 468 174 l 468 247 l 464 247 q 435 250 460 247 q 232 303 311 265 q 92 453 107 360 q 92 500 88 476 q 232 650 107 594 q 435 703 311 688 q 464 706 460 706 l 468 706 l 468 779 l 468 853 l 375 853 l 281 853 l 281 903 m 468 476 q 467 621 468 621 q 408 607 432 615 q 339 546 353 588 q 335 533 336 540 q 335 419 321 476 q 396 350 347 371 q 408 346 401 349 q 463 333 431 336 l 468 332 l 468 476 m 714 615 q 690 619 700 619 l 685 621 l 685 476 l 685 332 l 690 333 q 794 374 763 342 q 825 476 825 403 q 794 579 825 550 q 714 615 769 604 z "},"":{"ha":1242,"x_min":89,"x_max":1151,"o":"m 325 903 l 325 953 l 344 953 l 493 950 q 749 950 621 949 l 897 953 l 917 953 l 917 903 l 917 853 l 824 853 l 729 853 l 729 599 l 729 343 q 761 357 740 343 q 842 439 815 385 q 867 578 865 492 q 879 676 868 640 q 940 740 896 729 q 1040 743 949 743 q 1138 740 1132 743 q 1151 701 1151 728 q 1144 667 1151 674 q 1128 658 1139 658 q 1099 642 1111 658 q 1083 565 1085 618 q 1051 429 1079 488 q 946 314 1015 354 q 747 250 869 265 q 729 247 731 247 l 729 174 l 729 100 l 824 100 l 917 100 l 917 50 l 917 0 l 897 0 l 749 3 q 493 3 621 4 l 344 0 l 325 0 l 325 50 l 325 100 l 419 100 l 513 100 l 513 174 l 513 247 l 507 247 q 394 269 439 256 q 292 315 342 285 q 161 522 182 382 q 157 567 157 547 q 142 642 156 618 q 114 658 129 658 q 97 665 101 658 q 89 700 89 672 q 104 740 89 732 q 200 743 108 743 q 317 735 299 743 q 353 699 336 726 q 374 576 374 657 q 469 363 374 419 l 511 343 q 513 599 513 343 l 513 853 l 419 853 l 325 853 l 325 903 z "},"":{"ha":1154,"x_min":71,"x_max":1082,"o":"m 528 967 l 663 965 q 839 925 765 954 q 918 886 879 908 q 1063 663 1047 803 q 1060 585 1068 625 q 1022 474 1050 529 q 936 335 993 413 q 835 185 857 225 l 831 178 l 864 178 q 932 182 911 178 q 956 193 950 189 q 976 281 963 206 l 982 308 l 982 313 l 1032 313 l 1082 313 l 1082 308 l 1056 157 q 1031 4 1032 6 l 1031 0 l 878 0 q 718 3 724 0 q 710 8 713 6 q 704 47 704 17 q 761 336 707 140 q 811 556 800 476 q 790 775 829 697 q 647 876 749 856 q 576 882 621 882 q 506 876 532 882 q 363 775 404 856 q 342 556 324 697 q 392 336 353 476 q 449 47 446 140 q 443 8 449 17 q 435 3 440 6 q 275 0 429 0 l 122 0 l 122 4 q 97 157 121 6 q 71 308 71 307 l 71 313 l 121 313 l 171 313 l 171 308 l 176 281 q 197 193 190 206 q 222 182 203 188 q 289 178 242 178 l 322 178 l 318 185 q 217 335 296 225 l 179 389 q 89 625 93 517 q 115 753 86 693 q 235 886 154 833 q 351 938 290 922 q 528 967 426 961 z "},"":{"ha":932,"x_min":33,"x_max":1069,"o":"m 531 971 q 576 971 538 974 q 626 968 613 971 q 694 929 671 956 l 699 925 l 710 931 q 893 971 785 964 q 1007 953 972 975 q 1017 946 1011 950 q 1049 911 1036 932 q 1067 868 1061 889 q 1069 835 1069 858 q 1067 801 1069 813 q 982 733 1047 740 q 968 732 975 732 q 919 743 942 732 q 869 801 882 761 q 867 833 867 811 q 875 881 865 863 l 878 886 l 869 886 q 810 865 835 881 q 751 774 760 835 q 749 688 749 761 l 749 617 l 825 617 l 901 617 l 901 567 l 901 517 l 829 517 l 757 517 l 757 308 l 757 100 l 818 100 l 878 100 l 878 50 l 878 0 l 863 0 l 757 3 q 583 3 665 4 q 489 0 490 0 l 476 0 l 476 50 l 476 100 l 525 100 l 572 100 l 572 308 l 572 517 l 443 517 l 314 517 l 314 308 l 314 100 l 363 100 l 410 100 l 410 50 l 410 0 l 397 0 q 304 3 399 0 q 140 3 222 4 q 46 0 47 0 l 33 0 l 33 50 l 33 100 l 82 100 l 129 100 l 129 308 l 129 517 l 86 517 l 43 517 l 43 567 l 43 617 l 86 617 l 129 617 l 129 693 l 131 771 l 133 785 q 182 861 146 828 q 314 936 231 907 q 531 971 404 965 m 556 885 q 483 886 514 889 q 397 867 438 882 q 317 796 340 842 q 306 738 307 775 q 306 692 307 764 l 306 617 l 439 617 l 572 617 l 572 676 l 572 738 l 567 743 q 544 775 554 756 q 538 821 538 794 q 556 878 539 851 l 561 885 l 556 885 z "},"":{"ha":888,"x_min":33,"x_max":853,"o":"m 522 971 l 581 972 l 582 972 q 631 968 618 971 q 675 947 650 964 q 740 858 722 915 q 750 796 750 831 q 747 760 750 771 q 674 689 731 704 q 613 689 644 678 q 539 760 556 704 q 536 793 536 771 q 539 824 536 815 q 564 868 544 849 l 575 881 l 550 886 q 411 871 486 896 q 406 869 408 871 q 340 828 361 850 q 314 789 322 810 q 306 701 306 768 q 306 686 306 696 l 306 617 l 392 617 q 476 619 476 617 q 478 622 478 621 q 617 626 504 622 q 756 631 729 631 q 757 365 757 631 l 757 100 l 806 100 l 853 100 l 853 50 l 853 0 l 840 0 q 747 3 842 0 q 583 3 665 4 q 489 0 490 0 l 476 0 l 476 50 l 476 100 l 525 100 l 572 100 l 572 299 l 572 497 l 568 503 q 560 514 567 507 l 556 517 l 435 517 l 314 517 l 314 308 l 314 100 l 363 100 l 410 100 l 410 50 l 410 0 l 397 0 q 304 3 399 0 q 140 3 222 4 q 46 0 47 0 l 33 0 l 33 50 l 33 100 l 82 100 l 129 100 l 129 308 l 129 517 l 86 517 l 43 517 l 43 567 l 43 617 l 86 617 l 129 617 l 129 688 q 136 792 129 772 q 360 949 172 901 q 522 971 433 967 z "},"":{"ha":888,"x_min":33,"x_max":853,"o":"m 531 971 q 578 971 539 974 q 629 968 615 971 l 650 961 l 658 958 l 697 960 q 747 964 742 963 l 757 964 l 757 532 l 757 100 l 806 100 l 853 100 l 853 50 l 853 0 l 840 0 q 747 3 842 0 q 583 3 665 4 q 489 0 490 0 l 476 0 l 476 50 l 476 100 l 525 100 l 572 100 l 572 308 l 572 517 l 443 517 l 314 517 l 314 308 l 314 100 l 363 100 l 410 100 l 410 50 l 410 0 l 397 0 q 304 3 399 0 q 140 3 222 4 q 46 0 47 0 l 33 0 l 33 50 l 33 100 l 82 100 l 129 100 l 129 308 l 129 517 l 86 517 l 43 517 l 43 567 l 43 617 l 86 617 l 129 617 l 129 693 l 131 771 l 133 783 q 179 860 144 824 q 313 936 231 908 q 531 971 400 965 m 549 886 l 483 886 q 397 865 438 882 q 318 799 342 843 q 307 740 307 776 q 306 692 307 744 l 306 617 l 439 617 l 572 617 l 572 686 l 572 756 l 567 760 q 549 788 554 772 q 544 871 528 826 q 547 878 546 875 q 549 886 550 886 z "},"":{"ha":1331,"x_min":33,"x_max":1296,"o":"m 531 971 q 613 971 592 974 q 693 926 660 963 l 706 914 l 718 921 q 867 961 782 949 q 1035 972 953 975 q 1096 960 1072 971 q 1183 858 1158 932 q 1193 796 1193 831 q 1190 760 1193 771 q 1139 697 1176 717 q 1086 686 1118 686 q 1033 697 1054 686 q 982 760 996 717 q 979 793 979 771 q 982 824 979 815 q 1007 868 988 849 l 1018 881 l 993 886 q 854 871 929 896 q 849 869 851 871 q 783 828 804 850 q 757 789 765 810 q 749 701 749 768 q 749 686 749 696 l 749 617 l 835 617 q 919 619 919 617 q 921 622 919 621 q 1060 626 947 622 q 1199 631 1172 631 q 1200 365 1200 631 l 1200 100 l 1249 100 l 1296 100 l 1296 50 l 1296 0 l 1283 0 l 1189 3 q 1025 3 1107 4 l 932 0 l 919 0 l 919 50 l 919 100 l 968 100 l 1015 100 l 1015 299 l 1015 497 l 1011 503 q 1003 514 1010 507 l 999 517 l 878 517 l 757 517 l 757 308 l 757 100 l 806 100 l 853 100 l 853 50 l 853 0 l 840 0 q 747 3 842 0 q 583 3 665 4 q 489 0 490 0 l 476 0 l 476 50 l 476 100 l 525 100 l 572 100 l 572 308 l 572 517 l 443 517 l 314 517 l 314 308 l 314 100 l 363 100 l 410 100 l 410 50 l 410 0 l 397 0 q 304 3 399 0 q 140 3 222 4 q 46 0 47 0 l 33 0 l 33 50 l 33 100 l 82 100 l 129 100 l 129 308 l 129 517 l 86 517 l 43 517 l 43 567 l 43 617 l 86 617 l 129 617 l 129 693 l 131 771 l 133 783 q 156 832 138 801 q 210 885 174 857 q 531 971 319 963 m 554 885 q 483 886 533 889 q 318 799 357 875 q 307 740 307 776 q 306 692 307 744 l 306 617 l 439 617 l 572 617 l 572 661 q 571 704 572 704 l 561 713 q 528 793 528 742 q 560 872 528 844 q 563 882 569 881 q 554 885 560 883 z "},"":{"ha":1331,"x_min":33,"x_max":1296,"o":"m 531 971 q 614 971 593 974 q 699 926 665 960 l 708 917 l 721 922 q 801 949 753 936 q 1010 971 892 971 q 1069 968 1057 971 q 1092 961 1086 965 l 1101 958 l 1140 960 q 1190 964 1185 963 l 1200 964 l 1200 532 l 1200 100 l 1249 100 l 1296 100 l 1296 50 l 1296 0 l 1283 0 l 1189 3 q 1025 3 1107 4 l 932 0 l 919 0 l 919 50 l 919 100 l 968 100 l 1015 100 l 1015 308 l 1015 517 l 886 517 l 757 517 l 757 308 l 757 100 l 806 100 l 853 100 l 853 50 l 853 0 l 840 0 q 747 3 842 0 q 583 3 665 4 q 489 0 490 0 l 476 0 l 476 50 l 476 100 l 525 100 l 572 100 l 572 308 l 572 517 l 443 517 l 314 517 l 314 308 l 314 100 l 363 100 l 410 100 l 410 50 l 410 0 l 397 0 q 304 3 399 0 q 140 3 222 4 q 46 0 47 0 l 33 0 l 33 50 l 33 100 l 82 100 l 129 100 l 129 308 l 129 517 l 86 517 l 43 517 l 43 567 l 43 617 l 86 617 l 129 617 l 129 693 l 131 771 l 133 783 q 156 832 138 801 q 210 885 174 857 q 531 971 319 963 m 556 885 l 483 886 q 318 799 357 875 q 307 740 307 776 q 306 692 307 744 l 306 617 l 439 617 l 572 617 l 572 678 l 572 738 l 568 742 q 557 754 565 743 q 539 818 539 781 q 557 878 539 851 l 561 885 l 556 885 m 992 886 l 926 886 q 840 865 881 882 q 761 799 785 843 q 750 740 750 776 q 749 692 750 744 l 749 617 l 882 617 l 1015 617 l 1015 686 l 1015 756 l 1010 760 q 992 788 997 772 q 988 871 971 826 q 990 878 989 875 q 992 886 993 886 z "},"":{"ha":488,"x_min":-111,"x_max":388,"o":"m 239 619 q 379 625 383 625 l 388 625 l 388 267 q 382 -110 386 -97 q 379 -119 383 -107 q 292 -224 358 -183 q 229 -253 263 -242 q 114 -276 181 -272 q 33 -275 71 -281 q -101 -185 -68 -256 q -111 -133 -111 -164 q -101 -83 -111 -104 q -35 -32 -82 -43 q 18 -32 -8 -25 q 85 -83 65 -43 q 94 -132 94 -104 q 85 -183 94 -162 l 79 -192 l 88 -193 l 108 -193 q 194 -114 169 -189 q 203 -4 201 -94 q 203 203 203 40 l 203 489 l 199 494 q 157 513 190 510 q 128 514 146 514 l 97 514 l 97 564 l 97 614 l 101 614 l 239 619 z "},"":{"ha":799,"x_min":153,"x_max":471,"o":"m 240 982 q 285 979 269 985 q 319 958 307 971 q 400 861 325 954 q 469 769 471 771 l 410 696 q 307 744 408 694 q 199 801 200 801 q 158 854 169 819 q 158 899 153 874 q 192 953 168 931 q 240 982 214 975 z "},"":{"ha":799,"x_min":325,"x_max":640,"o":"m 517 981 q 608 950 567 993 q 640 876 640 918 q 631 836 640 853 q 599 801 619 813 l 490 744 q 388 696 389 694 l 328 769 q 394 858 325 772 q 471 953 465 944 q 517 981 493 975 z "},"":{"ha":799,"x_min":178,"x_max":619,"o":"m 199 878 l 219 924 l 310 890 l 399 858 l 488 890 l 578 924 l 599 878 q 618 832 619 832 l 400 711 q 289 771 394 711 l 179 832 q 199 878 178 832 z "},"":{"ha":799,"x_min":135,"x_max":663,"o":"m 135 947 l 135 964 l 176 964 l 219 964 l 219 951 q 289 842 226 883 q 358 813 318 821 q 399 810 371 810 q 464 819 436 810 q 571 918 544 846 q 578 951 576 935 l 578 964 l 621 964 l 663 964 l 663 947 q 557 743 654 818 q 443 692 506 703 q 354 692 399 683 q 172 821 235 714 q 135 947 139 879 z "},"":{"ha":799,"x_min":111,"x_max":686,"o":"m 111 790 l 111 843 l 399 843 l 686 843 l 686 790 l 686 736 l 399 736 l 111 736 l 111 790 z "},"":{"ha":710,"x_min":169,"x_max":632,"o":"m 301 -40 l 301 1 l 340 1 q 440 -6 401 0 q 628 -139 622 -28 q 497 -269 632 -236 q 451 -279 476 -275 q 226 -293 369 -293 l 169 -293 l 169 -251 l 169 -210 l 175 -210 q 221 -208 178 -208 q 421 -174 385 -208 q 433 -144 433 -162 q 431 -125 433 -132 q 324 -83 411 -87 l 301 -83 l 301 -40 z "},"":{"ha":829,"x_min":33,"x_max":783,"o":"m 383 971 q 500 969 432 974 q 646 924 589 957 q 735 811 715 882 q 738 771 738 796 q 735 732 738 744 q 685 628 722 675 q 618 575 658 596 q 613 571 613 572 q 658 539 629 561 q 783 263 776 444 q 776 189 783 218 q 704 63 760 111 q 504 -8 628 -4 q 447 0 469 -8 q 376 61 403 14 q 371 74 374 68 q 361 149 354 117 q 375 181 367 167 q 461 215 403 222 q 529 151 518 204 q 532 131 532 142 q 524 90 532 106 q 521 82 521 83 l 531 86 q 567 124 558 101 q 585 249 585 161 q 553 447 585 382 q 463 525 521 507 q 424 532 444 532 q 406 543 410 532 q 403 574 403 546 q 410 613 403 606 q 439 618 414 615 q 508 649 482 622 q 538 718 532 674 q 539 804 542 750 q 538 814 538 811 q 460 885 526 875 q 440 888 450 886 q 339 858 371 890 q 315 801 319 839 q 314 394 314 793 l 314 0 l 308 0 l 261 3 q 140 3 222 4 l 46 0 l 33 0 l 33 50 l 33 100 l 82 100 l 129 100 l 129 308 l 129 517 l 82 517 l 33 517 l 33 567 l 33 617 l 81 617 l 129 617 l 129 707 l 131 797 l 135 813 q 181 893 147 857 q 383 971 250 961 z "},"":{"ha":1154,"x_min":39,"x_max":1110,"o":"m 314 628 l 401 628 q 588 572 515 619 l 600 564 l 614 572 q 765 626 676 614 q 871 628 811 632 q 879 626 876 626 q 974 597 928 619 q 1108 349 1100 535 q 1103 311 1108 319 q 1094 306 1100 308 q 881 303 1089 303 l 674 303 l 674 285 q 721 142 679 185 q 875 82 771 89 q 906 83 899 82 q 1001 151 969 92 q 1008 167 1006 158 q 1029 186 1015 185 q 1058 188 1038 188 q 1094 185 1089 188 q 1106 172 1103 181 q 1104 147 1110 164 q 1054 71 1090 107 q 993 26 1026 43 q 894 -6 944 3 q 799 -7 858 -11 q 790 -6 794 -6 q 615 54 681 8 q 592 63 596 65 l 588 58 q 513 21 553 33 q 386 -3 454 3 q 232 -7 292 -14 q 103 47 157 1 q 57 108 72 74 q 46 193 39 151 q 207 324 64 282 q 453 361 308 354 l 481 361 l 481 404 q 476 458 479 449 q 424 528 463 508 q 343 544 394 544 q 282 542 285 544 l 286 533 q 296 483 297 514 q 293 451 296 461 q 268 410 285 426 q 225 383 250 392 q 193 381 214 381 q 163 383 172 381 q 118 410 136 392 q 93 451 101 426 q 90 483 90 461 q 93 515 90 506 q 217 615 111 588 q 314 628 257 624 m 842 543 q 807 543 824 546 l 794 542 l 793 542 q 703 485 733 533 q 676 403 683 457 q 675 389 676 392 l 675 383 l 807 383 l 940 383 l 939 389 q 878 528 929 493 q 842 543 863 539 m 483 264 q 481 281 481 279 l 464 279 l 463 279 q 346 260 397 275 q 247 194 264 235 q 243 171 243 186 q 269 103 243 131 q 293 86 285 90 q 363 78 317 74 q 456 103 411 82 q 482 124 471 113 q 506 161 500 142 q 501 194 510 175 q 483 264 492 225 z "},"":{"ha":1242,"x_min":46,"x_max":1197,"o":"m 361 628 q 465 626 406 631 q 651 551 581 610 l 663 543 l 672 551 q 760 603 708 581 q 853 626 800 618 q 958 628 899 632 q 967 626 964 626 q 1061 597 1015 619 q 1196 349 1188 535 q 1190 311 1196 319 q 1182 306 1188 308 q 968 303 1176 303 l 761 303 l 761 285 q 775 197 765 231 q 808 140 788 164 q 963 82 858 89 q 1014 88 996 82 q 1096 167 1074 107 q 1117 186 1103 185 q 1146 188 1125 188 q 1182 185 1176 188 q 1193 172 1189 181 q 1192 147 1197 164 q 1142 71 1178 107 q 1081 26 1114 43 q 982 -6 1032 3 q 886 -7 946 -11 q 878 -6 882 -6 q 713 47 783 4 q 671 78 682 64 q 667 81 668 79 q 653 71 665 81 q 390 -8 550 -12 l 349 -6 q 135 86 218 8 q 54 231 75 143 q 46 311 46 267 q 54 390 46 357 q 146 544 75 485 q 361 628 229 615 m 444 540 q 374 543 417 547 q 254 451 279 529 q 242 319 242 410 q 254 181 242 222 q 279 128 261 153 q 343 86 304 99 q 404 78 367 78 q 467 86 443 78 q 557 186 538 111 q 565 233 563 207 q 567 368 569 267 q 567 381 567 376 q 515 511 561 474 q 444 540 489 533 m 929 543 q 894 543 911 546 l 882 542 l 881 542 q 790 485 821 533 q 764 403 771 457 q 763 389 764 392 l 763 383 l 894 383 l 1028 383 l 1026 389 q 965 528 1017 493 q 929 543 950 539 z "},"":{"ha":799,"x_min":42,"x_max":756,"o":"m 618 771 q 621 774 618 774 l 693 731 l 604 578 l 615 572 q 735 417 700 518 q 753 314 751 367 q 697 122 756 203 q 614 46 667 76 q 518 6 579 22 q 399 -7 468 -7 q 289 4 333 -7 q 272 6 272 7 q 225 -74 271 6 q 178 -154 179 -154 l 104 -112 l 193 40 l 183 46 q 100 122 131 76 q 44 314 42 203 q 63 417 46 367 q 285 615 113 571 q 400 628 333 628 q 508 617 458 628 q 526 613 522 613 l 571 690 q 618 771 617 769 m 429 543 l 376 543 q 288 511 319 538 q 240 396 247 481 q 238 286 238 357 q 246 179 239 207 q 256 149 251 149 q 368 340 257 149 l 478 531 l 472 532 q 429 543 461 538 m 546 460 q 542 468 542 467 l 328 99 q 322 89 322 90 q 356 79 326 85 q 399 78 365 78 q 472 88 443 78 q 544 154 528 106 q 560 285 558 190 q 546 460 561 411 z "},"":{"ha":1242,"x_min":61,"x_max":1175,"o":"m 878 988 l 913 1044 l 989 997 l 958 947 q 926 894 928 894 q 933 888 926 892 q 1017 822 978 861 q 1146 551 1125 714 q 1056 171 1175 329 q 1049 163 1053 167 q 982 96 1026 133 q 692 -12 865 6 q 549 -12 628 -18 q 414 15 472 -4 q 396 21 397 21 l 363 -36 l 328 -92 l 290 -68 q 251 -44 253 -46 l 282 7 l 314 58 l 300 67 q 221 131 254 97 q 168 194 189 163 q 133 256 147 225 q 103 597 61 415 q 156 735 119 672 q 310 890 211 831 q 550 965 415 951 q 683 965 607 971 q 692 965 688 965 q 831 936 761 957 q 843 932 839 932 l 878 988 m 654 882 q 551 878 603 886 q 338 681 379 846 q 321 472 321 613 q 344 243 321 314 q 382 172 361 196 l 789 840 q 756 858 789 843 q 654 882 707 878 m 878 747 q 863 774 864 771 l 857 781 l 654 446 l 451 111 q 479 97 451 107 q 563 74 508 83 q 621 71 579 71 q 710 79 674 71 q 871 189 818 104 q 896 243 888 215 q 919 472 919 314 q 888 725 919 651 q 878 747 883 736 z "},"":{"ha":443,"x_min":8,"x_max":467,"o":"m 228 522 q 447 558 450 558 l 464 460 q 247 424 467 460 q 28 388 25 388 l 24 386 l 17 435 q 8 483 8 482 q 228 522 8 486 z "},"":{"ha":799,"x_min":122,"x_max":671,"o":"m 221 963 q 247 965 226 965 q 299 951 275 964 q 328 931 314 943 q 349 901 339 919 q 361 849 361 876 q 349 796 361 821 q 328 767 339 778 q 299 746 314 754 q 249 732 276 733 q 146 785 183 729 q 128 826 133 804 q 128 872 122 844 q 204 958 142 936 q 221 963 213 961 m 536 964 q 553 965 538 965 q 654 910 618 965 q 664 890 660 900 q 671 849 671 871 q 669 826 671 831 q 596 740 656 763 q 549 732 572 731 q 499 746 521 733 q 469 767 483 754 q 449 796 458 778 q 436 849 436 821 q 449 901 436 876 q 469 931 458 919 q 499 951 483 943 q 536 964 519 961 z "}}}
